<svg width="203" height="48" viewBox="0 0 203 48" fill="none" xmlns="http://www.w3.org/2000/svg">
<g opacity="0.3">
<path fill-rule="evenodd" clip-rule="evenodd" d="M0.75 24C14.7336 24 22.75 15.9836 22.75 2C22.75 15.9836 30.7664 24 44.75 24C30.7664 24 22.75 32.0164 22.75 46C22.75 32.0164 14.7336 24 0.75 24Z" fill="white"/>
<path d="M53.4404 33.9088L61.1204 12.9088H65.4404L73.1204 33.9088H69.0404L67.3604 29.0488H59.1704L57.4604 33.9088H53.4404ZM60.2204 26.0488H66.3104L63.2504 17.3188L60.2204 26.0488Z" fill="white"/>
<path d="M80.8225 34.2688C79.3025 34.2688 77.9625 33.9388 76.8025 33.2788C75.6425 32.6188 74.7225 31.6988 74.0425 30.5188C73.3825 29.3388 73.0525 27.9888 73.0525 26.4688C73.0525 24.9488 73.3825 23.5988 74.0425 22.4188C74.7225 21.2388 75.6425 20.3188 76.8025 19.6588C77.9625 18.9988 79.3025 18.6688 80.8225 18.6688C82.7225 18.6688 84.3225 19.1688 85.6225 20.1688C86.9225 21.1488 87.7525 22.5088 88.1125 24.2488H84.0625C83.8625 23.5288 83.4625 22.9688 82.8625 22.5688C82.2825 22.1488 81.5925 21.9388 80.7925 21.9388C79.7325 21.9388 78.8325 22.3388 78.0925 23.1388C77.3525 23.9388 76.9825 25.0488 76.9825 26.4688C76.9825 27.8888 77.3525 28.9988 78.0925 29.7988C78.8325 30.5988 79.7325 30.9988 80.7925 30.9988C81.5925 30.9988 82.2825 30.7988 82.8625 30.3988C83.4625 29.9988 83.8625 29.4288 84.0625 28.6888H88.1125C87.7525 30.3688 86.9225 31.7188 85.6225 32.7388C84.3225 33.7588 82.7225 34.2688 80.8225 34.2688Z" fill="white"/>
<path d="M90.0207 33.9088V19.0288H93.4107L93.7407 21.0388C94.2207 20.3188 94.8507 19.7488 95.6307 19.3288C96.4307 18.8888 97.3507 18.6688 98.3907 18.6688C100.691 18.6688 102.321 19.5588 103.281 21.3388C103.821 20.5188 104.541 19.8688 105.441 19.3888C106.361 18.9088 107.361 18.6688 108.441 18.6688C110.381 18.6688 111.871 19.2488 112.911 20.4088C113.951 21.5688 114.471 23.2688 114.471 25.5088V33.9088H110.631V25.8688C110.631 24.5888 110.381 23.6088 109.881 22.9288C109.401 22.2488 108.651 21.9088 107.631 21.9088C106.591 21.9088 105.751 22.2888 105.111 23.0488C104.491 23.8088 104.181 24.8688 104.181 26.2288V33.9088H100.341V25.8688C100.341 24.5888 100.091 23.6088 99.5907 22.9288C99.0907 22.2488 98.3207 21.9088 97.2807 21.9088C96.2607 21.9088 95.4307 22.2888 94.7907 23.0488C94.1707 23.8088 93.8607 24.8688 93.8607 26.2288V33.9088H90.0207Z" fill="white"/>
<path d="M123.846 34.2688C122.346 34.2688 121.016 33.9488 119.856 33.3088C118.696 32.6688 117.786 31.7688 117.126 30.6088C116.466 29.4488 116.136 28.1088 116.136 26.5888C116.136 25.0488 116.456 23.6788 117.096 22.4788C117.756 21.2788 118.656 20.3488 119.796 19.6888C120.956 19.0088 122.316 18.6688 123.876 18.6688C125.336 18.6688 126.626 18.9888 127.746 19.6288C128.866 20.2688 129.736 21.1488 130.356 22.2688C130.996 23.3688 131.316 24.5988 131.316 25.9588C131.316 26.1788 131.306 26.4088 131.286 26.6488C131.286 26.8888 131.276 27.1388 131.256 27.3988H119.946C120.026 28.5588 120.426 29.4688 121.146 30.1288C121.886 30.7888 122.776 31.1188 123.816 31.1188C124.596 31.1188 125.246 30.9488 125.766 30.6088C126.306 30.2488 126.706 29.7888 126.966 29.2288H130.866C130.586 30.1688 130.116 31.0288 129.456 31.8088C128.816 32.5688 128.016 33.1688 127.056 33.6088C126.116 34.0488 125.046 34.2688 123.846 34.2688ZM123.876 21.7888C122.936 21.7888 122.106 22.0588 121.386 22.5988C120.666 23.1188 120.206 23.9188 120.006 24.9988H127.416C127.356 24.0188 126.996 23.2388 126.336 22.6588C125.676 22.0788 124.856 21.7888 123.876 21.7888Z" fill="white"/>
<path d="M148.295 34.2688C146.175 34.2688 144.355 33.8188 142.835 32.9188C141.315 31.9988 140.145 30.7288 139.325 29.1088C138.505 27.4688 138.095 25.5788 138.095 23.4388C138.095 21.2988 138.505 19.4088 139.325 17.7688C140.145 16.1288 141.315 14.8488 142.835 13.9288C144.355 13.0088 146.175 12.5488 148.295 12.5488C150.815 12.5488 152.875 13.1788 154.475 14.4388C156.095 15.6788 157.105 17.4288 157.505 19.6888H153.275C153.015 18.5488 152.455 17.6588 151.595 17.0188C150.755 16.3588 149.635 16.0288 148.235 16.0288C146.295 16.0288 144.775 16.6888 143.675 18.0088C142.575 19.3288 142.025 21.1388 142.025 23.4388C142.025 25.7388 142.575 27.5488 143.675 28.8688C144.775 30.1688 146.295 30.8188 148.235 30.8188C149.635 30.8188 150.755 30.5188 151.595 29.9188C152.455 29.2988 153.015 28.4488 153.275 27.3688H157.505C157.105 29.5288 156.095 31.2188 154.475 32.4388C152.875 33.6588 150.815 34.2688 148.295 34.2688Z" fill="white"/>
<path d="M166.454 34.2688C165.014 34.2688 163.714 33.9388 162.554 33.2788C161.414 32.6188 160.504 31.7088 159.824 30.5488C159.164 29.3688 158.834 28.0088 158.834 26.4688C158.834 24.9288 159.174 23.5788 159.854 22.4188C160.534 21.2388 161.444 20.3188 162.584 19.6588C163.744 18.9988 165.044 18.6688 166.484 18.6688C167.904 18.6688 169.184 18.9988 170.324 19.6588C171.484 20.3188 172.394 21.2388 173.054 22.4188C173.734 23.5788 174.074 24.9288 174.074 26.4688C174.074 28.0088 173.734 29.3688 173.054 30.5488C172.394 31.7088 171.484 32.6188 170.324 33.2788C169.164 33.9388 167.874 34.2688 166.454 34.2688ZM166.454 30.9388C167.454 30.9388 168.324 30.5688 169.064 29.8288C169.804 29.0688 170.174 27.9488 170.174 26.4688C170.174 24.9888 169.804 23.8788 169.064 23.1388C168.324 22.3788 167.464 21.9988 166.484 21.9988C165.464 21.9988 164.584 22.3788 163.844 23.1388C163.124 23.8788 162.764 24.9888 162.764 26.4688C162.764 27.9488 163.124 29.0688 163.844 29.8288C164.584 30.5688 165.454 30.9388 166.454 30.9388Z" fill="white"/>
<path d="M176.007 33.9088V19.0288H179.427L179.787 21.8188C180.327 20.8588 181.057 20.0988 181.977 19.5388C182.917 18.9588 184.017 18.6688 185.277 18.6688V22.7188H184.197C183.357 22.7188 182.607 22.8488 181.947 23.1088C181.287 23.3688 180.767 23.8188 180.387 24.4588C180.027 25.0988 179.847 25.9888 179.847 27.1288V33.9088H176.007Z" fill="white"/>
<path d="M186.402 40.5088V19.0288H189.822L190.242 21.1588C190.722 20.4988 191.352 19.9188 192.132 19.4188C192.932 18.9188 193.962 18.6688 195.222 18.6688C196.622 18.6688 197.872 19.0088 198.972 19.6888C200.072 20.3688 200.942 21.2988 201.582 22.4788C202.222 23.6588 202.542 24.9988 202.542 26.4988C202.542 27.9988 202.222 29.3388 201.582 30.5188C200.942 31.6788 200.072 32.5988 198.972 33.2788C197.872 33.9388 196.622 34.2688 195.222 34.2688C194.102 34.2688 193.122 34.0588 192.282 33.6388C191.442 33.2188 190.762 32.6288 190.242 31.8688V40.5088H186.402ZM194.412 30.9088C195.632 30.9088 196.642 30.4988 197.442 29.6788C198.242 28.8588 198.642 27.7988 198.642 26.4988C198.642 25.1988 198.242 24.1288 197.442 23.2888C196.642 22.4488 195.632 22.0288 194.412 22.0288C193.172 22.0288 192.152 22.4488 191.352 23.2888C190.572 24.1088 190.182 25.1688 190.182 26.4688C190.182 27.7688 190.572 28.8388 191.352 29.6788C192.152 30.4988 193.172 30.9088 194.412 30.9088Z" fill="white"/>
</g>
</svg>
