<svg width="520" height="498" viewBox="0 0 520 498" fill="none" xmlns="http://www.w3.org/2000/svg">
<path d="M517.033 42.9857C516.318 41.3266 515.476 39.7429 514.516 38.2299C513.537 36.6792 512.436 35.2134 511.226 33.8418C509.683 32.0884 507.965 30.4953 506.097 29.086C500.319 24.7214 493.129 22.1338 485.332 22.1338H410.437C391.37 22.1338 375.913 37.6172 375.913 56.7157V111.386H348.314V116.142H519.856V56.7157C519.856 51.8374 518.849 47.1947 517.028 42.9857H517.033Z" fill="#E7EBF7"/>
<path d="M462.928 115.331H442.04V546H462.928V115.331Z" fill="#D4DAE9"/>
<path opacity="0.1" d="M445.282 55.2689C445.282 40.271 434.667 27.625 420.846 23.4867C418.145 22.676 410.438 22.1387 410.438 22.1387C391.37 22.1387 375.913 37.622 375.913 56.7206V111.391L444.619 111.518L445.278 55.2689H445.282Z" fill="#191919"/>
<path d="M380.91 108.096V57.2014C380.91 40.8932 394.156 27.6204 410.442 27.6204C426.728 27.6204 439.974 40.8885 439.974 57.2014V108.096H380.915H380.91Z" fill="#101819"/>
<path d="M495.764 14.9131V0H464.773V55.4998C461.507 57.536 459.281 61.6224 459.281 66.3358C459.281 73.0806 463.846 78.5481 469.474 78.5481C475.102 78.5481 479.666 73.0806 479.666 66.3358C479.666 62.1645 477.92 58.4833 475.257 56.2775V9.57754L495.769 14.9131H495.764Z" fill="#0675D5"/>
<path d="M469.469 73.7738C472.897 73.7738 475.676 70.4438 475.676 66.3361C475.676 62.2284 472.897 58.8984 469.469 58.8984C466.041 58.8984 463.262 62.2284 463.262 66.3361C463.262 70.4438 466.041 73.7738 469.469 73.7738Z" fill="#FEEFEA"/>
<path d="M393.789 46.7141H305.639V98.5705H393.789V46.7141Z" fill="#FFB104"/>
<path d="M305.639 98.5704H393.789L349.717 59.0771L305.639 98.5704Z" fill="#F79A24"/>
<path d="M393.789 46.7141H305.639L349.717 86.2026L393.789 46.7141Z" fill="#FFC35E"/>
<path d="M272.023 472.585C269.651 467.976 267.995 463.422 266.847 459.595C265.524 455.188 263.43 441.939 263.43 441.939L251.252 446.016L251.751 455.942C251.751 455.942 251.586 456.376 251.445 456.937C251.445 456.937 249.474 460.524 250.433 463.484C251.85 467.844 257.421 478.185 262.414 483.285C266.72 487.682 279.415 490.307 282.135 489.12C283.278 488.62 280.229 485.085 278.794 482.775C276.813 479.585 273.387 475.258 272.013 472.581L272.023 472.585Z" fill="#FFB399"/>
<path d="M30.5556 270.755C35.7223 271.099 40.4702 272.037 44.3335 273.026C48.785 274.167 57.8197 279.29 57.8197 279.29L63.9935 266.668L55.2505 261.969C55.2505 261.969 54.9634 261.601 54.5588 261.196C54.5588 261.196 52.5118 257.651 49.4814 256.944C45.0205 255.903 33.3036 255.342 26.3676 256.992C20.3821 258.41 11.5826 267.945 11.1921 270.891C11.0274 272.126 15.6247 271.344 18.3399 271.306C22.0855 271.254 27.5628 270.552 30.5556 270.755Z" fill="#FFB399"/>
<path d="M211.857 241.291C189.374 249.704 162.434 243.224 162.434 243.224C159.644 262.878 173.474 289.509 185.972 304.705C192.169 312.236 207.82 337.024 207.82 337.024C232.5 383.87 214.906 383.201 247.177 453.477C248.702 456.795 264.103 450.743 266.183 448.825C260.023 419.362 256.174 373.147 248.579 345.371C237.601 305.228 224.614 279.257 211.852 241.296L211.857 241.291Z" fill="#043C6C"/>
<path d="M193.741 284.843C193.741 284.843 171.78 340.036 147.372 335.681C122.969 331.331 55.2034 280.53 55.2034 280.53L59.1655 263.482C81.1547 271.693 129.274 281.906 142.36 294.878L151.687 249.983C151.687 249.983 194.908 251.552 193.741 284.843Z" fill="#043C6C"/>
<path d="M162.072 180.211C180.396 167.098 221.819 210.73 221.819 210.73C219.155 226.873 211.857 241.296 211.857 241.296L202.3 277.862L184.828 303.272C184.828 303.272 148.52 268.869 142.93 239.675C134.445 195.35 162.067 180.216 162.067 180.216L162.072 180.211Z" fill="#043C6C"/>
<path d="M278.803 482.776C278.785 482.747 278.742 482.7 278.723 482.672C280.088 484.901 280.808 486.688 279.697 487.173C276.978 488.361 267.802 484.029 263.496 479.627C258.504 474.527 253.257 467.641 251.84 463.276C250.895 460.354 251.186 458.153 251.478 456.956L251.455 456.937C251.455 456.937 246.514 460.67 246.801 464.714C247.074 468.565 247.121 488.861 247.205 491L250.161 490.967L251.723 481.692C251.723 481.692 258.565 491.769 263.656 495.186C268.748 498.603 287.255 500.371 289.913 497.231C293.085 493.494 281.566 486.876 278.803 482.776Z" fill="#043C6C"/>
<path d="M18.3352 271.307C18.3681 271.307 18.4293 271.292 18.4669 271.292C15.86 271.311 13.959 271.01 14.119 269.798C14.5095 266.852 22.956 261.22 28.9415 259.801C35.8823 258.152 44.4794 257.209 48.9403 258.251C51.9283 258.948 53.66 260.334 54.5352 261.206L54.5635 261.196C54.5635 261.196 53.9235 255.031 50.319 253.188C46.8839 251.43 29.5109 240.99 27.6428 239.958L26.1464 242.508L33.266 248.64C33.266 248.64 21.1162 249.305 15.5636 251.906C10.011 254.508 -1.05656 269.464 0.246884 273.366C1.80443 278.018 13.4131 271.556 18.3446 271.307H18.3352Z" fill="#043C6C"/>
<path d="M126.785 184.212C125.514 187.464 128.681 191.527 130.907 195.472C133.133 199.418 134.422 203.334 132.107 204.31C129.665 205.337 128.436 196.717 125.623 198.234C122.799 199.752 122.922 203.919 123.133 207.902C123.35 211.889 125.312 221.518 122.846 221.273C118.837 220.873 119.529 206.125 117.727 206.125C116.47 206.129 118.004 220.835 113.826 221.245C110.946 221.533 114.927 206.021 112.983 204.781C110.983 203.495 111.139 219.657 106.706 218.181C104.076 217.3 109.181 202.18 108.009 201.039C106.838 199.894 105.163 212.158 101.605 210.287C99.5394 209.202 103.252 199.083 106.711 193.257C112.527 183.463 114.221 180.795 114.997 179.452C114.997 179.452 130.465 127.869 134.516 117.08C137.589 108.916 155.051 104.736 163.827 103.194C162.66 116.538 164.001 126.158 165.404 129.679L150.684 134.293L126.775 184.212H126.785Z" fill="#FFB399"/>
<path d="M363.076 85.9058C360.29 86.033 358.455 88.8893 357.024 90.9208C355.688 92.8155 354.455 94.814 352.804 96.4354C351.175 98.0285 349.208 98.8911 347.002 99.5085C345.411 99.9516 340.588 100.588 340.409 100.607C339.538 100.696 338.71 100.819 337.892 100.423C337.205 100.088 336.165 99.7866 335.943 99.0042C335.703 98.1558 336.442 97.5619 336.922 97.0481C337.492 96.4354 338.197 95.9782 338.903 95.5399C339.858 94.9601 340.898 94.4228 341.75 93.6969C341.985 93.499 342.202 93.2869 342.404 93.0512C342.564 92.8721 344.399 90.8595 344.531 90.6521C345.947 88.4274 344.446 85.2883 340.96 86.4337C340.211 86.6788 338.55 87.3009 337.892 87.7204C334.753 89.7047 331.2 90.7888 328.504 93.3623C326.786 95.0025 325.158 97.1801 323.648 99.0183C323.154 99.6216 322.49 101.276 322.49 101.276C320.801 104.519 319.62 109.029 318.716 110.297L274.38 138.139L266.983 128.104C266.103 131.79 261.308 138.507 252.664 148.725C256.955 154.876 267.148 167.508 274.361 162.616C283.82 156.196 328.165 118.4 328.824 117.839C335.576 112.805 343.759 109.501 347.787 107.064C351.067 105.07 354.479 103.015 357.071 100.154C359.82 97.1236 361.998 93.6404 364.243 90.2091C364.596 89.6764 364.953 89.1203 365.076 88.4745C365.287 87.3056 364.36 85.8492 363.076 85.9105V85.9058Z" fill="#FFB399"/>
<path d="M272.437 133.534C272.272 133.789 272.027 134.123 271.707 134.51C269.176 137.611 262.037 144.526 253.205 149.484C252.847 149.692 252.485 149.89 252.123 150.083L252.005 149.866C251.657 149.216 251.403 148.711 251.257 148.41L251.102 148.103C247.704 160.466 239.945 171.863 232.637 183.425C232.637 183.425 221.499 210.338 221.814 210.73C221.814 210.73 201.971 221.382 162.072 180.211C163.47 178.881 164.881 177.614 166.655 175.257C168.434 172.9 170.575 169.445 173.436 163.737C175.553 159.51 177.144 154.348 178.414 148.815C179.629 143.578 180.551 138.031 181.37 132.648C181.459 132.068 181.548 131.493 181.638 130.914C181.774 130.009 181.906 129.104 182.042 128.208C182.998 121.779 183.882 115.812 185.016 111.188C189.026 94.9224 193.195 92.4432 198.592 90.6285C202.836 89.2004 206.916 88.4887 210.648 88.2342C221.842 87.4564 229.917 90.7322 229.917 90.7322C229.917 90.7322 229.931 90.8076 229.931 90.8265C230.378 90.9726 230.774 91.1611 231.103 91.378C234.049 93.2492 247.794 100.39 247.822 100.409C257.948 107.856 260.635 111.009 267.67 125.012C268.305 126.285 272.437 133.534 272.437 133.534Z" fill="#0675D5"/>
<path d="M200.851 96.7324C206.027 95.0403 208.893 91.9954 210.652 88.22C195.115 86.5845 150.529 104.905 150.529 104.905L161.371 133.101L183.115 127.954C183.115 127.954 188.663 122.128 194.912 114.954C189.247 110.264 187.821 101.889 200.855 96.7371L200.851 96.7324Z" fill="#0675D5"/>
<path opacity="0.1" d="M251.106 148.099C251.106 148.099 259.073 129.094 257.464 109.062C257.464 109.062 261.336 127.383 252.128 150.083L251.106 148.099Z" fill="#191919"/>
<path opacity="0.1" d="M178.396 148.687L178.414 148.815L189.642 125.964L182.042 128.203C181.05 134.901 179.934 142.013 178.4 148.687H178.396Z" fill="#191919"/>
<path d="M231.244 165.349C244.34 147.056 251.572 130.927 259.562 111.928C257.539 109.557 251.972 106.371 251.972 106.371C251.972 106.371 242.712 132.624 224.529 158.458C205.693 185.216 198.79 188.02 190.748 194.6C192.268 197.885 193.943 199.634 196.606 202.085C211.321 190.33 219.438 181.841 231.244 165.349Z" fill="#E7EBF7"/>
<path d="M200.968 193.949C200.592 193.285 199.35 196.716 198.587 196.49C193.726 195.062 162.058 188.463 162.072 188.529C151.419 185.88 150.346 189.439 150.054 189.396L144.195 199.214C139.462 208.603 134.723 217.987 129.989 227.376C129.128 229.087 128.248 230.822 126.921 232.245C124.997 234.31 122.117 235.771 121.232 238.387C120.461 240.659 121.519 243.199 123.274 244.891C125.03 246.588 127.378 247.597 129.698 248.511C145.894 254.898 163.432 258.277 181.026 258.409C181.807 258.414 182.635 258.404 183.318 258.027C184.235 257.518 184.654 256.486 184.96 255.525C186.541 250.627 187.181 245.513 188.324 240.513C191.237 227.782 197.425 215.824 199.952 203.018C200.079 202.377 201.288 194.524 200.968 193.949Z" fill="#D5DBF3"/>
<path d="M251.822 103.128C250.81 106.154 249.69 109.302 250.052 112.423C250.415 115.543 252.904 118.809 255.812 118.065C258 117.504 259.144 116.113 260.772 113.879C260.979 113.596 261.449 113.007 261.402 112.663C261.346 112.248 260.946 111.324 260.772 110.952C260.061 109.444 257.511 105.263 252.292 102.953C252.179 102.906 251.817 103.123 251.817 103.123L251.822 103.128Z" fill="#C4CEF1"/>
<path d="M201.585 196.292C200.465 194.081 197.896 192.865 195.477 191.89C185.821 187.992 155.828 180.149 155.823 180.144C151.306 178.82 148.379 186.375 148.379 186.375C142.784 199.403 135.603 211.823 126.945 223.281C126.498 223.87 126.168 224.534 126.046 225.251C125.552 228.055 128.069 229.083 130.243 229.78C143.424 234.013 156.985 237.166 170.716 239.188C175.003 239.82 179.384 240.343 183.647 239.721C185.567 239.443 187.52 238.896 188.899 237.647C189.896 236.747 190.513 235.554 191.096 234.381C196.131 224.195 199.75 213.387 201.844 202.302C202.22 200.298 202.531 198.149 201.585 196.287V196.292Z" fill="#C4CEF1"/>
<path d="M263.28 87.9234C262.602 89.097 261.03 94.7389 256.904 97.8733C255.473 98.9573 252.48 97.8968 249.177 95.8324L247.803 100.381L247.822 100.414C247.798 100.395 247.765 100.367 247.732 100.348C247.732 100.348 251.765 114.709 243.257 116.227C237.051 117.33 234.863 111.589 232.745 103.888L232.308 101.663C233.192 97.515 234.044 93.2495 231.103 91.3782C234.002 87.2682 233.827 83.5588 233.827 83.5588C234.058 81.9515 234.75 81.5462 235.663 81.8101C235.507 81.3671 235.404 80.9476 235.38 80.5658C234.952 74.6034 222.83 50.735 243.719 51.3336C264.607 51.9322 265.233 56.3627 265.233 56.3627C265.233 56.3627 269.759 61.0242 266.545 73.081C266.545 73.081 266.809 82.9272 268.155 84.7513C269.5 86.5753 263.962 86.7403 263.275 87.9186L263.28 87.9234Z" fill="#FFB399"/>
<path d="M290.064 70.3565L267.647 66.4444C267.647 66.4444 241.996 63.2864 218.553 62.1458C218.553 62.1458 219.951 35.4823 245.902 38.5413C261.398 40.3701 266.672 52.7285 267.642 61.057C299.743 67.8537 290.069 70.3612 290.069 70.3612L290.064 70.3565Z" fill="#0675D5"/>
<path d="M266.87 66.3455C262.597 65.8034 239.752 62.9849 218.6 61.9526C214.699 75.5035 218.638 91.3546 204.032 95.6437C183.304 103.1 200.361 120.337 211.231 115.03C225.767 129.113 236.27 116.095 236.27 96.445C241.338 90.7984 237.813 80.3442 240.561 76.7102C250.626 63.3949 258.941 79.7597 266.865 66.3502L266.87 66.3455Z" fill="#043C6C"/>
<path opacity="0.1" d="M239.916 87.188C239.916 87.188 242.448 93.2635 248.678 97.482L249.172 95.8417C249.172 95.8417 244.015 92.5989 239.916 87.188Z" fill="#191919"/>
</svg>
