<svg width="163" height="39" viewBox="0 0 163 39" fill="none" xmlns="http://www.w3.org/2000/svg">
<path d="M20.0873 20.6075C19.7473 16.4864 16.2949 13.2478 12.086 13.2478C7.65186 13.2478 4.05725 16.8424 4.05725 21.2766C4.05725 25.7108 7.65186 29.3054 12.086 29.3054H24.1292V20.6075H20.0873Z" fill="#393939"/>
<circle cx="23.4604" cy="19.2682" r="10.036" fill="#393939"/>
<path d="M43.2885 19.4286C43.2885 17.825 43.5957 16.4237 44.2102 15.2248C44.8396 14.0108 45.7313 13.0741 46.8853 12.4147C48.0543 11.7553 49.4256 11.4255 50.9993 11.4255C52.2282 11.4255 53.3298 11.6653 54.3039 12.1449C55.2781 12.6245 56.0649 13.2989 56.6644 14.1682C57.2639 15.0374 57.6236 16.0415 57.7435 17.1806H54.3714C54.1765 16.2813 53.7644 15.5769 53.1349 15.0674C52.5205 14.5428 51.7486 14.2806 50.8194 14.2806C49.5605 14.2806 48.5639 14.7527 47.8295 15.6968C47.0952 16.641 46.728 17.885 46.728 19.4286C46.728 20.9573 47.0952 22.2012 47.8295 23.1604C48.5639 24.1046 49.5605 24.5767 50.8194 24.5767C51.7486 24.5767 52.5205 24.3219 53.1349 23.8123C53.7644 23.2878 54.1765 22.5759 54.3714 21.6767H57.7435C57.6236 22.8157 57.2639 23.8198 56.6644 24.6891C56.0649 25.5583 55.2781 26.2327 54.3039 26.7123C53.3298 27.1919 52.2282 27.4317 50.9993 27.4317C49.4256 27.4317 48.0543 27.102 46.8853 26.4426C45.7313 25.7831 44.8396 24.8539 44.2102 23.655C43.5957 22.441 43.2885 21.0322 43.2885 19.4286Z" fill="#393939"/>
<path d="M58.5561 11.5604H61.7259V27.2968H58.5561V11.5604Z" fill="#393939"/>
<path d="M68.6782 27.4317C67.4642 27.4317 66.3926 27.1919 65.4634 26.7123C64.5492 26.2178 63.8373 25.5209 63.3278 24.6216C62.8332 23.7224 62.5859 22.6883 62.5859 21.5193C62.5859 20.3503 62.8332 19.3162 63.3278 18.417C63.8373 17.5178 64.5492 16.8284 65.4634 16.3488C66.3926 15.8542 67.4642 15.6069 68.6782 15.6069C69.8921 15.6069 70.9562 15.8542 71.8704 16.3488C72.7996 16.8284 73.5115 17.5178 74.0061 18.417C74.5156 19.3162 74.7704 20.3503 74.7704 21.5193C74.7704 22.7033 74.5156 23.7449 74.0061 24.6441C73.5115 25.5284 72.7996 26.2178 71.8704 26.7123C70.9562 27.1919 69.8921 27.4317 68.6782 27.4317ZM68.6782 24.8464C69.5624 24.8464 70.2593 24.5392 70.7688 23.9247C71.2934 23.3103 71.5557 22.5085 71.5557 21.5193C71.5557 20.5302 71.2934 19.7284 70.7688 19.1139C70.2593 18.4994 69.5624 18.1922 68.6782 18.1922C67.8089 18.1922 67.112 18.4994 66.5875 19.1139C66.0779 19.7284 65.8231 20.5302 65.8231 21.5193C65.8231 22.5085 66.0779 23.3103 66.5875 23.9247C67.112 24.5392 67.8089 24.8464 68.6782 24.8464Z" fill="#393939"/>
<path d="M86.4965 15.7418V27.2968H83.6864L83.3941 25.903C82.9895 26.3826 82.5174 26.7573 81.9779 27.0271C81.4383 27.2968 80.7789 27.4317 79.9996 27.4317C78.6507 27.4317 77.5492 27.0196 76.6949 26.1953C75.8407 25.356 75.4135 23.9622 75.4135 22.0139V15.7418H78.5833V21.6317C78.5833 22.6808 78.7631 23.4751 79.1228 24.0147C79.4975 24.5392 80.067 24.8015 80.8314 24.8015C81.6257 24.8015 82.2401 24.5092 82.6748 23.9247C83.1094 23.3253 83.3267 22.4935 83.3267 21.4294V15.7418H86.4965Z" fill="#393939"/>
<path d="M99.3561 11.5604V27.2968H96.591L96.2762 25.7007C95.392 26.8547 94.193 27.4317 92.6793 27.4317C91.6602 27.4317 90.746 27.1919 89.9367 26.7123C89.1274 26.2178 88.4904 25.5209 88.0258 24.6216C87.5762 23.7224 87.3514 22.6808 87.3514 21.4968C87.3514 20.3278 87.5762 19.3012 88.0258 18.417C88.4904 17.5178 89.1274 16.8284 89.9367 16.3488C90.761 15.8542 91.6827 15.6069 92.7018 15.6069C94.2005 15.6069 95.362 16.1315 96.1863 17.1806V11.5604H99.3561ZM93.4212 24.8464C94.2755 24.8464 94.9574 24.5467 95.4669 23.9472C95.9765 23.3327 96.2313 22.5309 96.2313 21.5418C96.2313 20.5377 95.9765 19.7284 95.4669 19.1139C94.9574 18.4994 94.2755 18.1922 93.4212 18.1922C92.5669 18.1922 91.8775 18.4994 91.353 19.1139C90.8434 19.7284 90.5886 20.5302 90.5886 21.5193C90.5886 22.5085 90.8434 23.3103 91.353 23.9247C91.8775 24.5392 92.5669 24.8464 93.4212 24.8464Z" fill="#393939"/>
<path d="M99.7676 11.5604L103.252 11.5379L106.152 23.048L109.232 11.5604H112.267L115.257 23.048L118.224 11.5604H121.641L117.28 27.2968H113.391L110.671 16.8434L108.018 27.2968H104.129L99.7676 11.5604Z" fill="#393939"/>
<path d="M132.218 24.6216V27.2968H130.6C129.146 27.2968 128.434 26.6674 128.464 25.4085C128.044 26.0679 127.527 26.57 126.913 26.9147C126.298 27.2594 125.557 27.4317 124.687 27.4317C123.398 27.4317 122.357 27.1395 121.562 26.555C120.783 25.9555 120.393 25.1162 120.393 24.0371C120.393 22.8082 120.843 21.864 121.742 21.2046C122.657 20.5302 123.975 20.193 125.699 20.193H127.992V19.6309C127.992 19.1064 127.797 18.6943 127.407 18.3945C127.018 18.0798 126.493 17.9224 125.834 17.9224C125.249 17.9224 124.77 18.0498 124.395 18.3046C124.02 18.5594 123.796 18.9041 123.721 19.3387H120.663C120.768 18.1547 121.293 17.2405 122.237 16.5961C123.181 15.9366 124.432 15.6069 125.991 15.6069C127.625 15.6069 128.884 15.9666 129.768 16.686C130.667 17.4054 131.117 18.447 131.117 19.8108V23.8798C131.117 24.1645 131.177 24.3594 131.297 24.4643C131.416 24.5692 131.604 24.6216 131.859 24.6216H132.218ZM127.992 22.3061H125.676C125.017 22.3061 124.5 22.441 124.125 22.7108C123.766 22.9656 123.586 23.3327 123.586 23.8123C123.586 24.217 123.736 24.5392 124.035 24.779C124.35 25.0188 124.77 25.1387 125.294 25.1387C126.119 25.1387 126.77 24.9064 127.25 24.4418C127.73 23.9622 127.977 23.3253 127.992 22.5309V22.3061Z" fill="#393939"/>
<path d="M133.287 18.417H131.376V15.7418H133.287V12.5046H136.457V15.7418H139.087V18.417H136.457V23.4751C136.457 23.8798 136.539 24.172 136.704 24.3519C136.884 24.5317 137.176 24.6216 137.581 24.6216H139.222V27.2968H136.592C134.389 27.2968 133.287 26.1953 133.287 23.9922V18.417Z" fill="#393939"/>
<path d="M150.589 22.9131C150.379 24.3219 149.78 25.4309 148.79 26.2402C147.816 27.0345 146.55 27.4317 144.991 27.4317C143.792 27.4317 142.743 27.1919 141.844 26.7123C140.945 26.2178 140.248 25.5209 139.753 24.6216C139.274 23.7224 139.034 22.6883 139.034 21.5193C139.034 20.3353 139.274 19.3012 139.753 18.417C140.248 17.5178 140.945 16.8284 141.844 16.3488C142.758 15.8542 143.815 15.6069 145.014 15.6069C146.557 15.6069 147.816 16.0041 148.79 16.7984C149.765 17.5777 150.364 18.6643 150.589 20.0581H147.307C147.172 19.4886 146.902 19.039 146.497 18.7092C146.093 18.3645 145.591 18.1922 144.991 18.1922C144.167 18.1922 143.508 18.4994 143.013 19.1139C142.518 19.7284 142.271 20.5302 142.271 21.5193C142.271 22.5085 142.518 23.3103 143.013 23.9247C143.508 24.5392 144.167 24.8464 144.991 24.8464C145.606 24.8464 146.115 24.6741 146.52 24.3294C146.94 23.9847 147.209 23.5126 147.329 22.9131H150.589Z" fill="#393939"/>
<path d="M157.992 15.6069C159.356 15.6069 160.472 16.0266 161.342 16.8658C162.226 17.7051 162.668 19.0914 162.668 21.0247V27.2968H159.498V21.1596C159.498 20.2005 159.303 19.4736 158.914 18.979C158.524 18.4695 157.94 18.2147 157.16 18.2147C156.351 18.2147 155.714 18.4919 155.249 19.0465C154.8 19.601 154.575 20.3728 154.575 21.362V27.2968H151.405V11.5604H154.575V17.1581C155.429 16.124 156.568 15.6069 157.992 15.6069Z" fill="#393939"/>
</svg>
