<svg width="202" height="48" viewBox="0 0 202 48" fill="none" xmlns="http://www.w3.org/2000/svg">
<g opacity="0.3">
<path d="M23.999 25.6667C23.5755 20.5337 19.2754 16.5 14.0332 16.5C8.51036 16.5 4.0332 20.9772 4.0332 26.5C4.0332 32.0228 8.51036 36.5 14.0332 36.5H29.0332V25.6667H23.999Z" fill="white"/>
<circle cx="28.1992" cy="24" r="12.5" fill="white"/>
<path d="M52.8965 24.2004C52.8965 22.2031 53.2792 20.4578 54.0445 18.9644C54.8285 17.4524 55.9392 16.2858 57.3765 15.4644C58.8325 14.6431 60.5405 14.2324 62.5005 14.2324C64.0312 14.2324 65.4032 14.5311 66.6165 15.1284C67.8298 15.7258 68.8098 16.5658 69.5565 17.6484C70.3032 18.7311 70.7512 19.9818 70.9005 21.4004H66.7005C66.4578 20.2804 65.9445 19.4031 65.1605 18.7684C64.3952 18.1151 63.4338 17.7884 62.2765 17.7884C60.7085 17.7884 59.4672 18.3764 58.5525 19.5524C57.6378 20.7284 57.1805 22.2778 57.1805 24.2004C57.1805 26.1044 57.6378 27.6538 58.5525 28.8484C59.4672 30.0244 60.7085 30.6124 62.2765 30.6124C63.4338 30.6124 64.3952 30.2951 65.1605 29.6604C65.9445 29.0071 66.4578 28.1204 66.7005 27.0004H70.9005C70.7512 28.4191 70.3032 29.6698 69.5565 30.7524C68.8098 31.8351 67.8298 32.6751 66.6165 33.2724C65.4032 33.8698 64.0312 34.1684 62.5005 34.1684C60.5405 34.1684 58.8325 33.7578 57.3765 32.9364C55.9392 32.1151 54.8285 30.9578 54.0445 29.4644C53.2792 27.9524 52.8965 26.1978 52.8965 24.2004Z" fill="white"/>
<path d="M71.9126 14.4004H75.8606V34.0004H71.9126V14.4004Z" fill="white"/>
<path d="M84.5199 34.1684C83.0079 34.1684 81.6732 33.8698 80.5159 33.2724C79.3772 32.6564 78.4905 31.7884 77.8559 30.6684C77.2399 29.5484 76.9319 28.2604 76.9319 26.8044C76.9319 25.3484 77.2399 24.0604 77.8559 22.9404C78.4905 21.8204 79.3772 20.9618 80.5159 20.3644C81.6732 19.7484 83.0079 19.4404 84.5199 19.4404C86.0319 19.4404 87.3572 19.7484 88.4959 20.3644C89.6532 20.9618 90.5399 21.8204 91.1559 22.9404C91.7905 24.0604 92.1079 25.3484 92.1079 26.8044C92.1079 28.2791 91.7905 29.5764 91.1559 30.6964C90.5399 31.7978 89.6532 32.6564 88.4959 33.2724C87.3572 33.8698 86.0319 34.1684 84.5199 34.1684ZM84.5199 30.9484C85.6212 30.9484 86.4892 30.5658 87.1239 29.8004C87.7772 29.0351 88.1039 28.0364 88.1039 26.8044C88.1039 25.5724 87.7772 24.5738 87.1239 23.8084C86.4892 23.0431 85.6212 22.6604 84.5199 22.6604C83.4372 22.6604 82.5692 23.0431 81.9159 23.8084C81.2812 24.5738 80.9639 25.5724 80.9639 26.8044C80.9639 28.0364 81.2812 29.0351 81.9159 29.8004C82.5692 30.5658 83.4372 30.9484 84.5199 30.9484Z" fill="white"/>
<path d="M106.713 19.6084V34.0004H103.213L102.849 32.2644C102.345 32.8618 101.757 33.3284 101.085 33.6644C100.413 34.0004 99.5916 34.1684 98.6209 34.1684C96.9409 34.1684 95.5689 33.6551 94.5049 32.6284C93.4409 31.5831 92.9089 29.8471 92.9089 27.4204V19.6084H96.8569V26.9444C96.8569 28.2511 97.0809 29.2404 97.5289 29.9124C97.9956 30.5658 98.7049 30.8924 99.6569 30.8924C100.646 30.8924 101.412 30.5284 101.953 29.8004C102.494 29.0538 102.765 28.0178 102.765 26.6924V19.6084H106.713Z" fill="white"/>
<path d="M122.73 14.4004V34.0004H119.286L118.894 32.0124C117.792 33.4498 116.299 34.1684 114.414 34.1684C113.144 34.1684 112.006 33.8698 110.998 33.2724C109.99 32.6564 109.196 31.7884 108.618 30.6684C108.058 29.5484 107.778 28.2511 107.778 26.7764C107.778 25.3204 108.058 24.0418 108.618 22.9404C109.196 21.8204 109.99 20.9618 110.998 20.3644C112.024 19.7484 113.172 19.4404 114.442 19.4404C116.308 19.4404 117.755 20.0938 118.782 21.4004V14.4004H122.73ZM115.338 30.9484C116.402 30.9484 117.251 30.5751 117.886 29.8284C118.52 29.0631 118.838 28.0644 118.838 26.8324C118.838 25.5818 118.52 24.5738 117.886 23.8084C117.251 23.0431 116.402 22.6604 115.338 22.6604C114.274 22.6604 113.415 23.0431 112.762 23.8084C112.127 24.5738 111.81 25.5724 111.81 26.8044C111.81 28.0364 112.127 29.0351 112.762 29.8004C113.415 30.5658 114.274 30.9484 115.338 30.9484Z" fill="white"/>
<path d="M123.242 14.4004L127.582 14.3724L131.194 28.7084L135.03 14.4004H138.81L142.534 28.7084L146.23 14.4004H150.486L145.054 34.0004H140.21L136.822 20.9804L133.518 34.0004H128.674L123.242 14.4004Z" fill="white"/>
<path d="M163.66 30.6684V34.0004H161.644C159.834 34.0004 158.947 33.2164 158.984 31.6484C158.462 32.4698 157.818 33.0951 157.052 33.5244C156.287 33.9538 155.363 34.1684 154.28 34.1684C152.675 34.1684 151.378 33.8044 150.388 33.0764C149.418 32.3298 148.932 31.2844 148.932 29.9404C148.932 28.4098 149.492 27.2338 150.612 26.4124C151.751 25.5724 153.394 25.1524 155.54 25.1524H158.396V24.4524C158.396 23.7991 158.154 23.2858 157.668 22.9124C157.183 22.5204 156.53 22.3244 155.708 22.3244C154.98 22.3244 154.383 22.4831 153.916 22.8004C153.45 23.1178 153.17 23.5471 153.076 24.0884H149.268C149.399 22.6138 150.052 21.4751 151.228 20.6724C152.404 19.8511 153.963 19.4404 155.904 19.4404C157.939 19.4404 159.507 19.8884 160.608 20.7844C161.728 21.6804 162.288 22.9778 162.288 24.6764V29.7444C162.288 30.0991 162.363 30.3418 162.512 30.4724C162.662 30.6031 162.895 30.6684 163.212 30.6684H163.66ZM158.396 27.7844H155.512C154.691 27.7844 154.047 27.9524 153.58 28.2884C153.132 28.6058 152.908 29.0631 152.908 29.6604C152.908 30.1644 153.095 30.5658 153.468 30.8644C153.86 31.1631 154.383 31.3124 155.036 31.3124C156.063 31.3124 156.875 31.0231 157.472 30.4444C158.07 29.8471 158.378 29.0538 158.396 28.0644V27.7844Z" fill="white"/>
<path d="M164.992 22.9404H162.612V19.6084H164.992V15.5764H168.94V19.6084H172.216V22.9404H168.94V29.2404C168.94 29.7444 169.042 30.1084 169.248 30.3324C169.472 30.5564 169.836 30.6684 170.34 30.6684H172.384V34.0004H169.108C166.364 34.0004 164.992 32.6284 164.992 29.8844V22.9404Z" fill="white"/>
<path d="M186.541 28.5404C186.28 30.2951 185.533 31.6764 184.301 32.6844C183.088 33.6738 181.511 34.1684 179.569 34.1684C178.076 34.1684 176.769 33.8698 175.649 33.2724C174.529 32.6564 173.661 31.7884 173.045 30.6684C172.448 29.5484 172.149 28.2604 172.149 26.8044C172.149 25.3298 172.448 24.0418 173.045 22.9404C173.661 21.8204 174.529 20.9618 175.649 20.3644C176.788 19.7484 178.104 19.4404 179.597 19.4404C181.52 19.4404 183.088 19.9351 184.301 20.9244C185.515 21.8951 186.261 23.2484 186.541 24.9844H182.453C182.285 24.2751 181.949 23.7151 181.445 23.3044C180.941 22.8751 180.316 22.6604 179.569 22.6604C178.543 22.6604 177.721 23.0431 177.105 23.8084C176.489 24.5738 176.181 25.5724 176.181 26.8044C176.181 28.0364 176.489 29.0351 177.105 29.8004C177.721 30.5658 178.543 30.9484 179.569 30.9484C180.335 30.9484 180.969 30.7338 181.473 30.3044C181.996 29.8751 182.332 29.2871 182.481 28.5404H186.541Z" fill="white"/>
<path d="M195.762 19.4404C197.461 19.4404 198.851 19.9631 199.934 21.0084C201.035 22.0538 201.586 23.7804 201.586 26.1884V34.0004H197.638V26.3564C197.638 25.1618 197.395 24.2564 196.91 23.6404C196.425 23.0058 195.697 22.6884 194.726 22.6884C193.718 22.6884 192.925 23.0338 192.346 23.7244C191.786 24.4151 191.506 25.3764 191.506 26.6084V34.0004H187.558V14.4004H191.506V21.3724C192.57 20.0844 193.989 19.4404 195.762 19.4404Z" fill="white"/>
</g>
</svg>
