<svg width="391" height="91" viewBox="0 0 391 91" fill="none" xmlns="http://www.w3.org/2000/svg">
<g clip-path="url(#clip0_17127_16392)">
<path fill-rule="evenodd" clip-rule="evenodd" d="M3.10055 18.6319C3.4263 17.7497 3.8742 17.0575 4.44425 16.5485C4.5189 16.5146 4.60034 16.501 4.68177 16.4875C4.76321 16.4807 4.96002 16.4739 5.27897 16.4739C5.45542 16.4739 5.60472 16.4875 5.74045 16.5078C5.87617 16.535 6.0119 16.5825 6.15442 16.6503C6.29693 16.725 6.46659 16.82 6.65661 16.9489L4.23387 18.8763L4.80393 19.3309V25.7508C4.18637 25.4522 3.6706 24.9704 3.33129 24.3732C2.85624 23.5521 2.61872 22.4459 2.61872 21.0682C2.61193 20.3217 2.7748 19.5074 3.10055 18.6319ZM2.8766 16.1685C3.01911 16.1685 3.20234 16.1956 3.4263 16.2431C3.65025 16.2906 3.85384 16.3382 4.04385 16.3857C2.71373 16.9761 1.6822 17.9465 0.956055 19.3106C0.324923 20.5118 -0.000823095 21.8487 0.00596328 23.2127C0.00596328 24.9568 0.60995 26.4498 1.82471 27.6917C3.03947 28.9336 4.5189 29.558 6.25621 29.558C7.93245 29.558 9.35758 28.9133 10.5113 27.6307C11.665 26.348 12.2486 24.8347 12.2486 23.0906C12.0925 23.457 11.9093 23.7624 11.7125 24.0067C11.4614 24.3053 11.1763 24.5836 10.8709 24.8279C10.6334 25.0315 10.4163 25.1876 10.2262 25.2894C10.0362 25.3912 9.79191 25.5065 9.48653 25.6355V17.0711C9.86656 16.915 10.172 16.7521 10.4027 16.5825C10.6334 16.4196 10.8845 16.1753 11.156 15.8563C11.855 15.0827 12.2418 14.214 12.3232 13.2639C11.8143 13.5965 11.3596 13.8408 10.9524 14.0036C10.5452 14.1597 10.0905 14.2683 9.58832 14.3158C9.50689 14.3158 9.3983 14.3226 9.25579 14.3362C8.69931 14.3362 7.87137 14.119 6.77198 13.6847C5.67258 13.2504 4.80393 13.0332 4.16601 13.0332C2.91053 13.0332 1.90615 13.6236 1.14607 14.7909C0.467437 15.836 0.121332 17.0779 0.121332 18.5234C0.216341 18.0822 0.447077 17.6615 0.813542 17.2611C1.085 16.9625 1.39717 16.7046 1.74327 16.501C2.08259 16.2839 2.46263 16.1685 2.8766 16.1685ZM14.4542 29.4358L16.524 27.1285L15.4789 26.0359V19.8535L16.0761 19.4531L17.7388 20.7154V28.8726C17.7388 29.334 17.7116 29.7276 17.6573 30.0534C17.6098 30.3588 17.4809 30.6506 17.2909 30.8949L16.7072 31.621C16.4426 31.9468 16.1168 32.2047 15.7232 32.3947C16.5172 32.3132 17.1687 32.1368 17.6709 31.8586C18.1799 31.5803 18.7024 31.1392 19.2385 30.542C19.6322 30.0941 19.9308 29.653 20.1276 29.2119C20.3312 28.7572 20.4601 28.2754 20.5212 27.7867V18.6455L19.8086 18.693L17.5759 17.1932L15.9607 18.5234L15.4382 18.2383V13.7186L14.9631 12.6939L12.8458 14.7637V26.4838L12.2011 27.2438L14.4542 29.4358ZM21.5391 26.8434L25.3666 29.2662L29.0041 25.4387L27.0293 26.8434L24.6066 25.1061V23.491L28.9363 20.2539L26.181 16.5417L21.7834 19.6092V26.3141L21.5391 26.8434ZM34.2636 14.8859V19.3309C33.9446 19.3649 33.6867 19.4192 33.4899 19.5006C33.2931 19.582 33.0827 19.7178 32.8588 19.9078C32.2209 20.4032 31.9087 21.0343 31.9087 21.808C31.9019 22.0523 31.9358 22.2898 32.0037 22.5205C32.2277 22.3305 32.4448 22.2016 32.6552 22.1405C32.8724 22.0794 33.137 22.0455 33.456 22.0455C33.6121 22.0455 33.741 22.0658 33.836 22.093C33.931 22.1269 34.0736 22.188 34.2636 22.283V26.6534L37.5482 29.9584L40.5681 26.8909L44.2056 29.9584L49.5058 24.8211V16.026L46.2212 13.5082L43.7984 15.6934L40.4935 13.5082L37.5482 15.9785V14.533C37.5482 14.0579 37.2089 13.5218 36.5234 12.9178C36.3198 12.7753 36.123 12.626 35.9398 12.4767C35.7566 12.3274 35.648 12.1102 35.6208 11.832C35.5937 11.6081 35.5801 11.3841 35.5733 11.1534C35.5733 10.6172 35.7566 10.1829 36.123 9.87075C35.9873 9.8436 35.8516 9.83003 35.7159 9.82324C35.0033 9.82324 34.3722 10.1218 33.8292 10.7123C33.2795 11.3095 33.0081 11.9677 33.0081 12.7007C33.0081 12.8092 33.0217 12.9653 33.0556 13.1553C33.1913 13.929 33.5917 14.5058 34.2636 14.8859ZM50.1437 26.9656L53.089 29.0354L55.2267 27.0131L57.7716 28.7979L59.9568 26.443H59.1967L58.2263 25.4387V18.4759L57.7037 18.5709L55.2335 16.501L50.5509 19.7313V26.5516L50.1437 26.9656ZM64.3272 16.9625C64.0286 16.82 63.7436 16.6368 63.4857 16.4264L59.6107 19.1613V23.776L59.9704 24.061H62.2777L59.2849 29.2662C59.7464 28.8726 60.0993 28.6079 60.3572 28.479C60.7169 28.3025 61.1172 28.2143 61.5244 28.2143C62.0334 28.2143 62.4406 28.2754 62.7596 28.3907C63.0785 28.5061 63.4043 28.7165 63.7368 29.0219L67.5372 26.0291V21.3465L67.2521 21.0615H64.7072V20.8239L66.9671 16.8539C66.7296 16.9964 66.5396 17.0779 66.397 17.105C66.1663 17.1322 65.9356 17.1457 65.7048 17.1389H65.2026C64.8973 17.1457 64.5987 17.0847 64.3272 16.9625ZM70.3535 29.1033L72.4437 26.7756L71.3986 25.683V19.5006L71.9687 19.0934L73.6585 20.376V28.5061C73.6652 28.8997 73.6381 29.2933 73.577 29.6869C73.5227 29.9923 73.3938 30.2773 73.1834 30.5284C73.0545 30.6845 72.8848 30.9153 72.6609 31.2206C72.3758 31.5532 72.0297 31.8246 71.6361 32.0282C72.3623 31.9671 73.0137 31.7907 73.577 31.4989C74.1403 31.2071 74.6696 30.7727 75.1582 30.2027C75.5247 29.7751 75.8097 29.3272 76.0133 28.859C76.2169 28.3907 76.3527 27.9089 76.4205 27.4203V18.2858L75.7283 18.3605L73.4684 16.8607L71.8533 18.1705L71.3307 17.8854V13.3861L70.8761 12.341L68.7383 14.4108V26.158L68.0936 26.8909L70.3535 29.1033ZM81.7885 15.0555L79.6508 13.3182L77.9135 15.2184L79.7187 16.8607L81.7885 15.0555ZM78.4361 20.4235V26.8909L77.9814 27.5832H78.789L80.6416 29.1508L82.5893 27.366L85.0867 29.3883L87.2719 26.9656L86.5797 26.0902V20.0299L87.1498 19.7449L88.412 21.1225V27.0606L90.6244 28.9879L92.7621 26.5652H91.7645L91.1945 25.6355V19.1681L91.4795 18.5709L90.9094 18.693L88.7242 16.9557L86.5865 19.1681L84.0891 17.1932L82.0193 19.5006H82.8269L83.5191 20.3082V26.2462L82.1414 26.7213L81.2592 26.0291V19.3717L81.5442 18.9645L79.074 17.1322L77.0517 19.2699L77.7439 19.487L78.4361 20.4235ZM121.183 26.6806L120.498 25.7983V19.7381L121.068 19.4531L122.33 20.8307V26.7959L124.543 28.6961L126.68 26.2734H125.683L125.113 25.3437V18.8763L125.398 18.3062L124.828 18.4012L122.642 16.6639L120.505 18.8763L118.007 16.9014L115.938 19.2088H116.745L117.437 20.0164V25.9816L116.582 27.1217L119.222 28.859L121.183 26.6806ZM93.2236 26.7281C93.5425 26.7281 93.8276 26.7688 94.0922 26.8502C94.3569 26.9317 94.608 27.0674 94.8659 27.2642C95.117 27.461 95.307 27.651 95.4224 27.8342C95.5377 28.0175 95.6395 28.2686 95.721 28.5807L94.4858 30.1755L93.1761 31.9332C93.5086 31.7432 93.7936 31.6278 94.0312 31.5871C94.2687 31.5464 94.6148 31.526 95.0763 31.526C95.6124 31.5735 96.0739 31.7025 96.4539 31.9061C96.8339 32.1097 97.18 32.4218 97.499 32.8358C98.2591 32.5508 99.1413 31.9129 100.152 30.9356C101.164 29.9516 101.666 29.144 101.666 28.5129C101.666 28.4043 101.55 28.0582 101.32 27.4949C101.089 26.9181 100.974 26.3073 100.974 25.683V18.2858L97.6686 16.216L93.5086 19.1613V26.1987L93.2236 26.7281ZM101.428 18.598H102.806V26.8502L102.473 27.4949H103.281L105.018 28.8251L107.251 26.2802H106.274L105.629 25.588V18.7609L107.034 17.0236H105.629V12.4835L102.799 15.1234V16.9286L101.428 18.598ZM107.441 26.7281L110.386 28.8183L115.524 25.2283V18.2383L115.001 18.3605L112.524 16.2703L107.841 19.5006V26.3277L107.441 26.7281ZM131.573 14.9334V17.1457C131.159 17.1457 130.813 17.1864 130.528 17.2747C130.243 17.3629 129.972 17.5326 129.707 17.7836C129.442 18.0347 129.293 18.3333 129.246 18.6659C129.198 18.9984 129.171 19.4327 129.171 19.9756C129.171 20.1996 129.164 20.3489 129.144 20.4303C129.49 19.8738 129.979 19.6431 130.596 19.7381C131.01 19.7992 131.336 19.9756 131.573 20.2607V23.9457C130.847 24.3257 130.209 24.8279 129.673 25.4454C129.069 26.158 128.662 26.8909 128.458 27.6578C128.73 27.4474 129.015 27.2574 129.314 27.1013C129.551 26.9792 129.884 26.8638 130.311 26.7349C130.467 26.6874 130.65 26.6331 130.861 26.5788C131.064 26.5245 131.302 26.4973 131.573 26.4973V33.6027L134.688 31.0578L135.733 31.8178V27.7732L137.064 28.2279L141.556 25.1129V14.6483L138.679 12.341L135.733 14.8112V13.5082L135.163 13.0332V15.1234L134.688 15.4559V13.2707L132.266 11.4113L129.388 14.2412C129.626 14.0987 129.87 14.024 130.121 14.024C130.325 14.024 130.528 14.0579 130.718 14.119C131.146 14.2819 131.431 14.5533 131.573 14.9334ZM141.963 26.9656L144.909 29.0354L150.066 25.4454V18.4759L149.544 18.5709L147.046 16.501L142.364 19.7313V26.5516L141.963 26.9656ZM155.611 16.8607C155.305 16.7114 155.007 16.535 154.728 16.3382L150.874 19.0459V23.6606L151.206 23.9457H153.514L150.521 29.1508C150.853 28.8658 151.132 28.6554 151.356 28.5061C151.77 28.2346 152.245 28.0989 152.781 28.0989C153.276 28.0989 153.677 28.16 153.996 28.2754C154.314 28.3975 154.64 28.6011 154.973 28.9065L158.78 25.9137V21.2311L158.495 20.9461H155.95V20.7086L158.21 16.7385C157.972 16.8811 157.782 16.9625 157.64 16.9896C157.497 17.0168 157.267 17.0236 156.948 17.0236H156.452C156.126 17.0236 155.848 16.9693 155.611 16.8607ZM158.841 18.7134H160.219V26.9656L159.886 27.6103H160.694L162.404 28.9404L164.664 26.3955H163.686L163.042 25.7033V18.883L164.419 17.1457H163.042V12.6057L160.225 15.2455V17.0507L158.841 18.7134ZM53.374 18.9305L55.2267 20.3082V25.8458L54.6295 26.4906L53.3672 25.3979L53.374 18.9305ZM99.406 28.6758C99.786 28.9472 99.976 29.2865 99.976 29.7005C99.976 29.8905 99.9557 30.033 99.9285 30.128C99.8335 30.2706 99.7589 30.3656 99.7114 30.4131C99.5824 30.542 99.4195 30.6234 99.2363 30.6506C99.0327 30.6845 98.7613 30.5827 98.4287 30.352C98.0962 30.1213 97.594 30.0059 96.9289 30.0059C96.5014 30.0059 96.1146 30.0466 95.7617 30.128C95.4156 30.2095 95.0491 30.3452 94.6691 30.5352L98.1437 26.253V26.8027C98.1437 27.1217 98.1708 27.3796 98.2251 27.5899C98.2794 27.7935 98.4016 27.9971 98.5916 28.1871C98.8631 28.35 99.1345 28.5197 99.406 28.6758ZM96.3385 18.6455L98.1437 19.9756V25.3504L97.6211 25.9205L96.3385 24.6379V18.6455ZM24.6066 22.8056V19.3309L26.3439 21.5161L24.6066 22.8056ZM65.3384 18.883L63.7232 21.7605H62.5085V18.6455C62.9835 18.9441 63.4993 19.1002 64.0557 19.1002C64.4969 19.0934 64.9244 19.0256 65.3384 18.883ZM110.671 18.693L112.524 20.0978V25.6355L111.934 26.2802L110.671 25.1604V18.693ZM62.9564 23.491H64.6937V26.5584C64.4494 26.4702 64.1983 26.4023 63.9472 26.3548C63.7775 26.3345 63.4382 26.3209 62.9156 26.3209C62.6102 26.3141 62.3116 26.348 62.0131 26.4159C61.762 26.477 61.4566 26.5856 61.1105 26.7281L62.9564 23.491ZM134.688 17.0236L135.163 16.6164V30.1891L134.688 29.9041V17.0236ZM135.733 16.2635L137.186 15.3338L138.231 16.0938V25.0315C137.735 24.7465 137.471 24.5972 137.423 24.5768L136.901 24.4071C136.514 24.3121 136.12 24.2171 135.733 24.1221V16.2635ZM8.69931 17.3086C8.85539 17.3086 8.98433 17.295 9.07934 17.2611V25.9137C8.48214 26.2123 7.82386 26.3684 7.15201 26.3684C6.7584 26.3684 6.35801 26.3209 5.9644 26.2259C5.57079 26.1309 5.25862 26.0019 5.03466 25.8458L7.74243 23.1381V17.1932C7.8578 17.2543 7.97995 17.295 8.10889 17.3018C8.24462 17.3086 8.33284 17.3154 8.38035 17.3154L8.69931 17.3086ZM145.2 18.9305L147.053 20.3082V25.8458L146.483 26.4906L145.2 25.3979V18.9305ZM37.5414 16.6707L38.4236 15.9785L40.2559 17.8312V26.3684L39.5162 27.1285L37.5414 25.2283V16.6707ZM155.991 18.9305C156.194 18.8966 156.398 18.8423 156.581 18.7609L154.966 21.6383H153.751V18.5234C154.219 18.822 154.762 18.978 155.319 18.978C155.563 18.978 155.787 18.9577 155.991 18.9305ZM154.206 23.3756H155.943V26.443C155.699 26.3548 155.448 26.287 155.197 26.2395C155.027 26.2123 154.688 26.2055 154.158 26.2055C153.853 26.1987 153.548 26.2327 153.256 26.3005C152.957 26.382 152.659 26.4838 152.374 26.6127L154.206 23.3756ZM43.7916 16.6707L44.6535 15.9785L46.5062 17.8312V26.3684L45.7461 27.1285L43.7984 25.2283L43.7916 16.6707Z" fill="black"/>
</g>
<g clip-path="url(#clip1_17127_16392)">
<path d="M248.796 19.2191V28.156H245.533V19.2191H242.232V16.3739H252.087V19.2191H248.796Z" fill="black"/>
<path d="M259.714 24.602H254.53C254.633 25.5815 255.201 26.0106 256.031 26.0106C256.805 26.0106 257.448 25.8427 258.316 25.3856L259.472 27.326C258.381 27.9697 257.253 28.3335 255.873 28.3335C253.216 28.3335 251.752 26.4491 251.752 23.7344C251.752 20.684 253.467 19.1261 255.789 19.1261C258.213 19.1261 259.723 20.7213 259.723 24.005C259.723 24.2662 259.723 24.4528 259.714 24.602ZM255.705 21.3743C255.015 21.3743 254.633 21.85 254.53 22.7176H257.057C256.898 21.8221 256.6 21.3743 255.705 21.3743Z" fill="black"/>
<path d="M265.346 28.3426C262.754 28.3426 261.206 26.6914 261.206 23.7156C261.206 21.0009 262.586 19.1352 265.411 19.1352C267.08 19.1352 268.031 19.9094 268.805 21.1502L266.716 22.736C266.297 21.9618 266.008 21.5886 265.355 21.5886C264.581 21.5886 264.189 22.3629 264.189 23.7622C264.189 25.1615 264.609 25.8798 265.439 25.8798C266.008 25.8798 266.418 25.5626 266.968 24.7324L268.889 26.2343C267.863 27.7456 266.912 28.3426 265.346 28.3426Z" fill="black"/>
<path d="M275.667 28.1561V23.1373C275.667 21.9899 275.285 21.6913 274.66 21.6913C274.016 21.6913 273.634 21.9899 273.634 23.1093V28.1561H270.604V17.0923L273.634 15.8796V19.9096C274.194 19.4898 274.809 19.1353 275.853 19.1353C277.793 19.1353 278.716 20.432 278.716 22.7548V28.1561H275.667Z" fill="black"/>
<path d="M285.96 28.3427C282.464 28.3427 280.59 25.7493 280.59 22.2697C280.59 18.4823 282.809 16.1968 285.969 16.1968C288.86 16.1968 290.007 17.4468 290.818 19.667L287.862 20.8145C287.443 19.723 287.042 19.0327 285.96 19.0327C284.599 19.0327 284.011 20.3947 284.011 22.2604C284.011 24.0609 284.58 25.4881 285.997 25.4881C287.023 25.4881 287.461 24.9284 288.095 23.8183L290.855 25.2829C290.072 26.8408 288.757 28.3427 285.96 28.3427Z" fill="black"/>
<path d="M298.305 22.6523C297.922 22.2325 297.484 21.9153 296.897 21.9153C296.16 21.9153 295.703 22.2698 295.703 23.3426V28.1562H292.673V19.3219H295.703V19.9656C296.225 19.4619 296.813 19.1447 297.587 19.1447C298.23 19.1447 298.659 19.2939 299.013 19.5178L298.305 22.6523Z" fill="black"/>
<path d="M305.502 28.1562V27.5685C304.962 27.9882 304.328 28.3427 303.302 28.3427C301.363 28.3427 300.44 27.0461 300.44 24.7232V19.3219H303.488V24.3407C303.488 25.4882 303.871 25.7867 304.495 25.7867C305.12 25.7867 305.502 25.4882 305.502 24.3687V19.3219H308.551V28.1562H305.502Z" fill="black"/>
<path d="M315.796 28.156V23.1372C315.796 21.9898 315.413 21.6912 314.789 21.6912C314.145 21.6912 313.763 21.9898 313.763 23.1092V28.156H310.733V19.3217H313.763V19.9095C314.323 19.4897 314.938 19.1352 315.982 19.1352C317.921 19.1352 318.845 20.4319 318.845 22.7547V28.156H315.796Z" fill="black"/>
<path d="M324.746 28.3426C322.154 28.3426 320.607 26.6914 320.607 23.7156C320.607 21.0009 321.987 19.1352 324.812 19.1352C326.481 19.1352 327.432 19.9094 328.205 21.1502L326.117 22.736C325.697 21.9618 325.408 21.5886 324.756 21.5886C323.982 21.5886 323.59 22.3629 323.59 23.7622C323.59 25.1615 324.01 25.8798 324.84 25.8798C325.408 25.8798 325.819 25.5626 326.369 24.7324L328.289 26.2343C327.264 27.7456 326.313 28.3426 324.746 28.3426Z" fill="black"/>
<path d="M335.068 28.1561V23.1373C335.068 21.9899 334.685 21.6913 334.061 21.6913C333.417 21.6913 333.035 21.9899 333.035 23.1093V28.1561H330.005V17.0923L333.035 15.8796V19.9096C333.594 19.4898 334.21 19.1353 335.254 19.1353C337.193 19.1353 338.116 20.432 338.116 22.7548V28.1561H335.068Z" fill="black"/>
<path d="M194.999 11.3271V18.0625H201.73V31.5238H208.453V18.0625H215.184V11.3271H194.999Z" fill="black"/>
<path d="M221.907 24.7885V18.0625L215.184 18.0625L215.184 31.5239H235.361V24.7885H221.907Z" fill="black"/>
<path d="M235.361 11.3271H221.907L221.907 18.0625L235.361 18.0625V11.3271Z" fill="black"/>
</g>
<g clip-path="url(#clip2_17127_16392)">
<path d="M96.97 77.0829H100.882C101.034 77.5762 101.55 78.0694 102.517 78.0694C103.827 78.0694 104.278 77.256 104.278 76.0532V75.1965H104.191C103.545 75.9494 102.686 76.5032 101.42 76.5032C98.926 76.5032 96.7574 74.66 96.7574 71.0559C96.7574 67.7547 98.54 65.1803 101.229 65.1803C102.777 65.1803 103.723 65.8033 104.347 66.7898H104.413V65.5264H108.281V75.5167C108.281 77.3598 107.635 78.7963 106.668 79.6573C105.657 80.5572 104.217 80.9207 102.582 80.9207C99.5072 80.9207 97.3603 79.653 96.97 77.0829ZM104.452 70.8612C104.452 69.4247 103.766 68.2652 102.582 68.2652C101.442 68.2652 100.713 69.2949 100.713 70.8612C100.713 72.4058 101.446 73.5178 102.582 73.5178C103.762 73.5221 104.452 72.3842 104.452 70.8612ZM92.4377 67.4951H92.5027C93.3398 65.8855 94.4371 65.2885 95.8336 65.2885C96.1546 65.2885 96.3714 65.3317 96.5016 65.3966V68.9358H96.4148C94.0294 68.5075 92.6328 69.6454 92.6328 72.2371V77.0613H88.5689V65.5264H92.4377V67.4951ZM0 60.8926H7.95433C9.45932 60.8926 10.6173 61.256 11.4371 61.9223C12.3609 62.6708 12.8553 63.7871 12.8553 65.1154C12.8553 66.66 12.2308 67.6249 10.9426 68.2263V68.2912C12.6211 68.8493 13.5883 70.3507 13.5883 72.1722C13.5883 73.9072 12.9204 75.2614 11.8274 76.0748C10.9036 76.7411 9.7022 77.0613 8.11047 77.0613H0V60.8926ZM7.56832 73.4788C8.53551 73.4788 9.24246 72.8991 9.24246 71.826C9.24246 70.7098 8.47045 70.1733 7.54664 70.1733H4.40654V73.4745H7.56832V73.4788ZM7.1563 67.2182C8.01505 67.2182 8.6396 66.7465 8.6396 65.8033C8.6396 64.8818 7.99336 64.4318 7.13461 64.4318H4.40654V67.2182H7.1563Z" fill="black"/>
<path d="M14.3169 60.8926H18.4849V77.0613H14.3169V60.8926ZM19.2829 71.3112C19.2829 67.6681 21.6467 65.2019 25.3029 65.2019C28.9591 65.2019 31.2795 67.6681 31.2795 71.3112C31.2795 74.9802 28.9591 77.4204 25.3029 77.4204C21.6467 77.4247 19.2829 74.9802 19.2829 71.3112ZM27.1505 71.3112C27.1505 69.2949 26.5043 68.0316 25.2595 68.0316C24.0148 68.0316 23.4119 69.2949 23.4119 71.3112C23.4119 73.349 24.0148 74.6124 25.2595 74.6124C26.5043 74.6167 27.1505 73.349 27.1505 71.3112ZM31.7522 71.3112C31.7522 67.6681 34.116 65.2019 37.7722 65.2019C41.4284 65.2019 43.7488 67.6681 43.7488 71.3112C43.7488 74.9802 41.4284 77.4204 37.7722 77.4204C34.116 77.4247 31.7522 74.9802 31.7522 71.3112ZM39.6198 71.3112C39.6198 69.2949 38.9736 68.0316 37.7288 68.0316C36.4841 68.0316 35.8812 69.2949 35.8812 71.3112C35.8812 73.349 36.4841 74.6124 37.7288 74.6124C38.9736 74.6167 39.6198 73.349 39.6198 71.3112ZM44.5425 65.5264H48.4112V67.2614H48.4763C49.2483 65.9115 50.3022 65.1803 51.959 65.1803C53.4206 65.1803 54.5179 65.9072 55.0774 67.1749H55.1425C56.088 65.6519 57.3154 65.1803 58.7336 65.1803C61.4227 65.1803 62.5807 67.1533 62.5807 69.8098V77.057H58.5168V70.541C58.5168 69.3598 58.1525 68.5897 57.1202 68.5897C56.1097 68.5897 55.5935 69.5329 55.5935 70.779V77.0613H51.5253V70.541C51.5253 69.3598 51.161 68.5897 50.1287 68.5897C49.1182 68.5897 48.6021 69.5329 48.6021 70.779V77.0613H44.5425V65.5264ZM67.5424 75.5599H67.499V77.0613H63.6303V60.8926H67.6942V66.7249H67.7592C68.5312 65.7168 69.5635 65.1803 71.0468 65.1803C73.9483 65.1803 75.6268 67.7979 75.6268 71.2679C75.6268 75.1922 73.8009 77.442 70.7909 77.442C69.5418 77.4464 68.2537 76.845 67.5424 75.5599ZM71.4979 71.229C71.4979 69.3642 70.8126 68.1614 69.5852 68.1614C68.3404 68.1614 67.5424 69.3642 67.5424 71.229C67.5424 73.0721 68.3361 74.2966 69.5852 74.2966C70.8299 74.2922 71.4979 73.0938 71.4979 71.229ZM76.1429 71.2722C76.1429 67.6681 78.5284 65.163 81.9894 65.163C83.7069 65.163 85.0428 65.6995 86.0533 66.6643C87.3848 67.9494 87.9877 69.9656 87.9443 72.3452H80.1852C80.3587 73.7817 81.0439 74.5129 82.2713 74.5129C82.9826 74.5129 83.6028 74.1927 83.8631 73.4183H87.7752C87.0899 76.0532 85.0471 77.3858 82.1456 77.3858C78.5501 77.3815 76.1429 74.9585 76.1429 71.2722ZM80.1852 70.0694H83.8804C83.8154 68.6762 83.0433 67.945 82.0762 67.945C80.9572 67.945 80.3326 68.7411 80.1852 70.0694Z" fill="black"/>
</g>
<g clip-path="url(#clip3_17127_16392)">
<path d="M154.602 74.9699V64.0939C154.602 63.5281 154.727 63.1037 154.994 62.8208C155.245 62.5379 155.589 62.3965 155.997 62.3965C156.42 62.3965 156.764 62.5379 157.015 62.8208C157.281 63.1037 157.407 63.5281 157.407 64.0939V74.9699C157.407 75.5357 157.281 75.9758 157.015 76.2587C156.749 76.5416 156.42 76.683 155.997 76.683C155.589 76.683 155.26 76.5416 155.009 76.2587C154.743 75.96 154.602 75.5357 154.602 74.9699Z" fill="black"/>
<path d="M230.422 76.6673C226.505 76.6673 223.309 73.4611 223.309 69.5319C223.309 65.6027 226.505 62.3965 230.422 62.3965C234.34 62.3965 237.536 65.6027 237.536 69.5319C237.536 73.4768 234.355 76.6673 230.422 76.6673ZM230.422 65.2884C228.088 65.2884 226.192 67.1901 226.192 69.5319C226.192 71.8737 228.088 73.7754 230.422 73.7754C232.757 73.7754 234.653 71.8737 234.653 69.5319C234.653 67.2058 232.757 65.2884 230.422 65.2884Z" fill="black"/>
<path d="M198.505 76.6673C194.588 76.6673 191.392 73.4611 191.392 69.5319C191.392 65.6027 194.588 62.3965 198.505 62.3965C202.423 62.3965 205.619 65.6027 205.619 69.5319C205.619 73.4768 202.423 76.6673 198.505 76.6673ZM198.505 65.2884C196.171 65.2884 194.275 67.1901 194.275 69.5319C194.275 71.8737 196.171 73.7754 198.505 73.7754C200.84 73.7754 202.736 71.8737 202.736 69.5319C202.736 67.2058 200.84 65.2884 198.505 65.2884Z" fill="black"/>
<path d="M221.037 69.5319C221.037 67.9602 220.52 66.4986 219.658 65.3198C218.405 63.6067 216.399 62.4751 214.127 62.3965C214.049 62.3965 213.986 62.3965 213.908 62.3965H210.335C209.724 62.3965 209.285 62.5379 209.019 62.8208C208.753 63.1037 208.612 63.5438 208.612 64.1725V74.907C208.612 75.5357 208.753 75.9758 209.019 76.2587C209.285 76.5416 209.74 76.683 210.335 76.683H213.908C213.986 76.683 214.049 76.683 214.127 76.683C216.399 76.6202 218.389 75.4885 219.658 73.7597C220.52 72.5652 221.037 71.1036 221.037 69.5319ZM214.425 73.744C214.08 73.7597 213.704 73.7754 213.312 73.7754H211.448V65.2884H213.312C213.704 65.2884 214.08 65.2884 214.425 65.3198C215.663 65.4613 216.728 66.1528 217.402 67.1272C217.872 67.8031 218.154 68.636 218.154 69.5319C218.154 70.4277 217.872 71.245 217.402 71.9208C216.728 72.9267 215.663 73.6025 214.425 73.744Z" fill="black"/>
<path d="M187.365 62.4593C186.848 62.3021 186.284 62.5065 185.986 62.9623L181.693 69.5161L177.4 62.9623C177.102 62.5065 176.538 62.3021 176.021 62.4593C175.504 62.6165 175.144 63.1194 175.144 63.6695V75.3156C175.144 76.0072 175.692 76.5887 176.381 76.5887C177.055 76.5887 177.619 76.0229 177.619 75.3156V67.8187L180.659 72.4709C180.659 72.4709 180.659 72.4709 180.659 72.4866C180.659 72.4866 180.659 72.5023 180.675 72.5023C180.69 72.5338 180.706 72.5652 180.737 72.5809C180.753 72.5966 180.753 72.5966 180.769 72.6123C180.784 72.6281 180.8 72.6595 180.816 72.6752C180.831 72.6909 180.847 72.7066 180.863 72.7224C180.878 72.7381 180.894 72.7381 180.894 72.7538C180.925 72.7695 180.941 72.7852 180.972 72.8167L180.988 72.8324C181.019 72.8481 181.051 72.8638 181.066 72.8795C181.082 72.8795 181.082 72.8952 181.082 72.8952C181.098 72.911 181.129 72.911 181.145 72.9267C181.27 72.9895 181.395 73.021 181.536 73.0367C181.568 73.0367 181.583 73.0367 181.615 73.0367C181.63 73.0367 181.646 73.0367 181.662 73.0367C181.677 73.0367 181.693 73.0367 181.709 73.0367C181.74 73.0367 181.756 73.0367 181.787 73.0367C181.912 73.021 182.053 72.9895 182.179 72.9267C182.194 72.911 182.226 72.911 182.241 72.8952L182.257 72.8795C182.288 72.8638 182.32 72.8481 182.335 72.8324C182.351 72.8324 182.351 72.8167 182.351 72.8167C182.382 72.8009 182.398 72.7852 182.429 72.7538C182.445 72.7381 182.461 72.7381 182.461 72.7224C182.476 72.7066 182.492 72.6909 182.508 72.6752C182.523 72.6595 182.539 72.6438 182.555 72.6123C182.57 72.5966 182.57 72.5966 182.586 72.5809C182.602 72.5495 182.633 72.5338 182.649 72.5023L182.664 72.4866C182.664 72.4866 182.664 72.4866 182.664 72.4709L185.704 67.8187V75.3156C185.704 76.0072 186.253 76.5887 186.942 76.5887C187.616 76.5887 188.18 76.0229 188.18 75.3156V63.6695C188.243 63.1194 187.882 62.6165 187.365 62.4593Z" fill="black"/>
<path d="M170.944 76.2429H161.716C161.23 76.2429 160.697 75.9443 160.493 75.4728C160.29 75.0013 160.258 74.3569 160.681 73.8383L168.218 65.0526H161.982C161.308 65.0526 160.744 64.4554 160.744 63.7324C160.744 63.0094 161.293 62.5537 161.982 62.5537H170.38C170.866 62.5537 171.367 62.6322 171.806 63.1195C172.214 63.5595 172.182 64.5182 171.744 65.084L164.458 73.6025H170.944C171.634 73.6025 172.12 74.1998 172.12 74.9227C172.12 75.6457 171.634 76.2429 170.944 76.2429Z" fill="black"/>
<path d="M145.42 76.6673C143.368 76.6673 141.519 75.85 140.187 74.3727C139.028 73.0839 138.354 71.3708 138.354 69.6733C138.354 64.3768 142.741 62.3965 145.514 62.3965C148.241 62.3965 150.231 63.7324 150.325 63.7953C150.936 64.2196 151.108 65.0526 150.685 65.6813C150.278 66.31 149.447 66.4671 148.836 66.0585C148.805 66.0428 147.379 65.1155 145.514 65.1155C143.775 65.1155 141.378 66.2628 141.378 69.6733C141.378 71.6065 142.819 73.9011 145.452 73.9011C146.94 73.9011 147.974 73.5082 148.585 73.1153V71.1036H146.548C145.812 71.1036 145.217 70.4906 145.217 69.7519C145.217 68.9975 145.812 68.4003 146.548 68.4003H149.949C150.685 68.4003 151.28 69.0132 151.28 69.7519V73.7911C151.28 74.1526 151.139 74.5141 150.873 74.7656C149.98 75.6457 148.006 76.6673 145.42 76.6673Z" fill="black"/>
</g>
<g clip-path="url(#clip4_17127_16392)">
<path fill-rule="evenodd" clip-rule="evenodd" d="M309.824 65.788C308.722 65.788 307.85 66.0168 306.978 66.5201C306.978 64.0037 306.978 61.6704 307.07 60.8926L301.699 61.8534V62.3109L302.25 62.4024C302.985 62.5396 303.214 62.9514 303.352 63.9122C303.489 65.8338 303.444 75.945 303.352 77.6378C304.775 77.958 306.29 78.1868 307.804 78.1868C312.028 78.1868 314.552 75.5789 314.552 71.4613C314.598 68.1671 312.533 65.788 309.824 65.788ZM307.988 77.2718C307.667 77.2718 307.254 77.2718 307.024 77.1803C306.932 76.0822 306.886 71.4155 306.932 67.2978C307.391 67.1606 307.713 67.0691 308.126 67.0691C309.87 67.0691 310.834 69.1279 310.834 71.6443C310.834 74.8469 309.641 77.2718 307.988 77.2718Z" fill="black"/>
<path fill-rule="evenodd" clip-rule="evenodd" d="M281.685 61.2128H267.685V61.9448L268.465 62.0363C269.521 62.1736 269.888 62.8141 270.072 64.3239C270.301 67.1605 270.209 72.3305 270.072 74.8011C269.934 76.3109 269.521 76.9972 268.465 77.0887L267.685 77.2259V77.8665H276.682V77.2259L275.718 77.0887C274.662 76.9972 274.295 76.3109 274.111 74.8011C274.019 73.7488 273.973 72.1017 273.973 70.0429L275.901 70.1344C277.095 70.1344 277.646 71.0952 277.875 72.422H278.61V66.7487H277.875C277.646 68.0756 277.095 69.0363 275.901 69.0363L273.973 69.1278C273.973 66.4285 274.065 63.9121 274.111 62.4023H276.911C279.069 62.4023 280.17 63.7291 280.951 66.1082L281.731 65.8795L281.685 61.2128Z" fill="black"/>
<path fill-rule="evenodd" clip-rule="evenodd" d="M286.184 65.6508C290.177 65.6508 292.151 68.3502 292.151 71.9188C292.151 75.3045 289.948 78.1868 285.954 78.1868C281.961 78.1868 279.987 75.4875 279.987 71.9188C279.987 68.4874 282.236 65.6508 286.184 65.6508ZM285.954 66.4286C284.21 66.4286 283.751 68.8077 283.751 71.8731C283.751 74.8927 284.531 77.3176 286.138 77.3176C287.974 77.3176 288.433 74.9384 288.433 71.8731C288.433 68.8992 287.653 66.4286 285.954 66.4286Z" fill="black"/>
<path fill-rule="evenodd" clip-rule="evenodd" d="M315.608 71.9646C315.608 68.7162 317.674 65.6051 321.713 65.6051C325.064 65.6051 326.625 68.0757 326.625 71.3241H319.234C319.143 74.2522 320.566 76.4025 323.458 76.4025C324.743 76.4025 325.386 76.0823 326.166 75.5333L326.487 75.945C325.707 77.0431 323.963 78.1411 321.713 78.1411C318.179 78.1869 315.608 75.6248 315.608 71.9646ZM319.28 70.5005L322.999 70.409C322.999 68.8077 322.769 66.4286 321.392 66.4286C320.061 66.4286 319.372 68.6705 319.28 70.5005Z" fill="black"/>
<path fill-rule="evenodd" clip-rule="evenodd" d="M336.127 66.2913C335.163 65.8796 333.924 65.6508 332.455 65.6508C329.517 65.6508 327.681 67.3894 327.681 69.4482C327.681 71.5071 329.012 72.3763 330.94 73.0169C332.914 73.7489 333.465 74.2979 333.465 75.213C333.465 76.1738 332.73 77.043 331.491 77.043C329.976 77.043 328.874 76.1738 328.002 73.7947L327.451 73.9319L327.543 77.4091C328.507 77.8208 330.251 78.1411 331.766 78.1411C334.888 78.1411 336.861 76.5398 336.861 74.1149C336.861 72.4678 335.989 71.5071 333.924 70.7293C331.72 69.86 330.894 69.311 330.894 68.2587C330.894 67.2064 331.628 66.5201 332.547 66.5201C333.97 66.5201 334.934 67.3894 335.668 69.5397L336.219 69.4025L336.127 66.2913Z" fill="black"/>
<path fill-rule="evenodd" clip-rule="evenodd" d="M302.48 65.9711C301.148 65.1933 298.761 65.5594 297.476 68.4417L297.568 65.6509L292.243 66.7032V67.1607L292.794 67.2522C293.528 67.3437 293.85 67.7097 293.896 68.762C294.033 70.6836 293.987 73.9777 293.896 75.6705C293.804 76.6313 293.482 77.0888 292.794 77.1803L292.243 77.2718V77.9124H299.634V77.2718L298.67 77.1803C297.889 77.0888 297.614 76.6313 297.568 75.6705C297.43 74.1607 297.43 71.1411 297.476 69.2653C297.889 68.7162 299.634 68.213 301.194 69.2653L302.48 65.9711Z" fill="black"/>
</g>
<defs>
<clipPath id="clip0_17127_16392">
<rect width="164.922" height="24.0615" fill="white" transform="translate(0 9.82324)"/>
</clipPath>
<clipPath id="clip1_17127_16392">
<rect width="143.367" height="24.0615" fill="white" transform="translate(194.999 9.82324)"/>
</clipPath>
<clipPath id="clip2_17127_16392">
<rect width="108.277" height="24.0615" fill="white" transform="translate(0 57.8848)"/>
</clipPath>
<clipPath id="clip3_17127_16392">
<rect width="99.2538" height="24.0615" fill="white" transform="translate(138.354 57.8848)"/>
</clipPath>
<clipPath id="clip4_17127_16392">
<rect width="69.1769" height="24.0615" fill="white" transform="translate(267.685 57.8848)"/>
</clipPath>
</defs>
</svg>
