<svg width="152" height="39" viewBox="0 0 152 39" fill="none" xmlns="http://www.w3.org/2000/svg">
<path d="M17.4249 3.21069C14.5024 3.21069 12.142 5.54246 12.142 8.4294C12.142 11.2942 14.5024 13.6259 17.4024 13.6481C16.683 13.6259 16.121 13.0485 16.121 12.3379C16.121 11.6272 16.7055 11.0277 17.4474 11.0277C20.5947 11.0277 27.5861 11.0277 30.666 11.0277C32.8466 11.0277 34.6225 9.27329 34.6225 7.1192C34.6225 4.96507 32.8466 3.21069 30.666 3.21069L17.4249 3.21069Z" fill="#393939"/>
<path d="M11.0021 13.6482C8.07957 13.6482 5.71912 15.98 5.71912 18.8669C5.71912 21.7317 8.07957 24.0634 10.9796 24.0856C10.2602 24.0634 9.69818 23.486 9.69818 22.7754C9.69818 22.0647 10.2827 21.4652 11.0246 21.4652C14.1718 21.4652 21.1633 21.4652 24.2431 21.4652C26.4237 21.4652 28.1997 19.7108 28.1997 17.5567C28.1997 15.4026 26.4237 13.6482 24.2431 13.6482L11.0021 13.6482Z" fill="#393939"/>
<path d="M6.56178 24.0859C3.43055 24.0859 0.901489 26.5971 0.901489 29.7061C0.901489 32.7912 3.43055 35.3023 6.53767 35.3262C5.76692 35.3023 5.16477 34.6805 5.16477 33.9152C5.16477 33.1499 5.79103 32.5042 6.58589 32.5042C9.95793 32.5042 17.4488 32.5042 20.7486 32.5042C23.085 32.5042 24.9878 30.6149 24.9878 28.2951C24.9878 25.9753 23.085 24.0859 20.7486 24.0859L6.56178 24.0859Z" fill="#393939"/>
<path d="M42.6354 27.2228V10.3624H53.4742V13.2527H45.8148V17.2751H52.7998V20.1655H45.8148V24.3324H53.6187V27.2228H42.6354Z" fill="#393939"/>
<path d="M54.8643 32.0401V15.276H57.851V16.7211H58.2845C58.5575 16.2555 58.983 15.846 59.5611 15.4927C60.1392 15.1234 60.9661 14.9388 62.042 14.9388C63.0054 14.9388 63.8966 15.1796 64.7156 15.6613C65.5345 16.127 66.1929 16.8175 66.6907 17.7328C67.1884 18.6481 67.4373 19.756 67.4373 21.0567V21.4421C67.4373 22.7427 67.1884 23.8507 66.6907 24.766C66.1929 25.6813 65.5345 26.3798 64.7156 26.8615C63.8966 27.3272 63.0054 27.56 62.042 27.56C61.3194 27.56 60.7092 27.4717 60.2114 27.295C59.7297 27.1345 59.3363 26.9257 59.0312 26.6688C58.7422 26.3958 58.5093 26.1228 58.3327 25.8499H57.8991V32.0401H54.8643ZM61.1267 24.9105C62.0741 24.9105 62.8529 24.6134 63.4631 24.0193C64.0893 23.4091 64.4025 22.526 64.4025 21.3698V21.1289C64.4025 19.9728 64.0893 19.0977 63.4631 18.5035C62.8368 17.8933 62.0581 17.5883 61.1267 17.5883C60.1954 17.5883 59.4166 17.8933 58.7903 18.5035C58.1641 19.0977 57.851 19.9728 57.851 21.1289V21.3698C57.851 22.526 58.1641 23.4091 58.7903 24.0193C59.4166 24.6134 60.1954 24.9105 61.1267 24.9105Z" fill="#393939"/>
<path d="M69.0197 27.2228V15.276H72.0546V27.2228H69.0197ZM70.5371 13.879C69.9912 13.879 69.5255 13.7023 69.1401 13.3491C68.7708 12.9958 68.5861 12.5301 68.5861 11.9521C68.5861 11.374 68.7708 10.9083 69.1401 10.555C69.5255 10.2018 69.9912 10.0251 70.5371 10.0251C71.0991 10.0251 71.5648 10.2018 71.9341 10.555C72.3035 10.9083 72.4881 11.374 72.4881 11.9521C72.4881 12.5301 72.3035 12.9958 71.9341 13.3491C71.5648 13.7023 71.0991 13.879 70.5371 13.879Z" fill="#393939"/>
<path d="M79.8254 27.56C78.6693 27.56 77.6175 27.3191 76.6701 26.8374C75.7388 26.3557 75.0001 25.6572 74.4542 24.7419C73.9082 23.8266 73.6352 22.7186 73.6352 21.418V21.0808C73.6352 19.7801 73.9082 18.6721 74.4542 17.7569C75.0001 16.8416 75.7388 16.1431 76.6701 15.6613C77.6175 15.1796 78.6693 14.9388 79.8254 14.9388C80.9655 14.9388 81.945 15.1395 82.764 15.5409C83.5829 15.9424 84.2412 16.4963 84.739 17.2029C85.2529 17.8933 85.5901 18.6802 85.7507 19.5633L82.8121 20.1896C82.7479 19.7079 82.6034 19.2743 82.3786 18.8889C82.1538 18.5035 81.8326 18.1984 81.4151 17.9736C81.0137 17.7488 80.5079 17.6364 79.8977 17.6364C79.2875 17.6364 78.7335 17.7729 78.2357 18.0459C77.754 18.3028 77.3686 18.6962 77.0796 19.2261C76.8066 19.74 76.6701 20.3742 76.6701 21.1289V21.3698C76.6701 22.1245 76.8066 22.7668 77.0796 23.2967C77.3686 23.8106 77.754 24.204 78.2357 24.4769C78.7335 24.7339 79.2875 24.8623 79.8977 24.8623C80.813 24.8623 81.5034 24.6295 81.9691 24.1638C82.4508 23.6821 82.7559 23.0559 82.8844 22.2851L85.8229 22.9836C85.6142 23.8346 85.2529 24.6134 84.739 25.32C84.2412 26.0104 83.5829 26.5564 82.764 26.9578C81.945 27.3593 80.9655 27.56 79.8254 27.56Z" fill="#393939"/>
<path d="M91.6744 27.4155C90.7431 27.4155 89.9241 27.2067 89.2176 26.7892C88.5271 26.3557 87.9892 25.7615 87.6038 25.0068C87.2184 24.2521 87.0257 23.385 87.0257 22.4055V15.276H90.0606V22.1647C90.0606 23.0639 90.2774 23.7383 90.7109 24.1879C91.1605 24.6375 91.7948 24.8623 92.6138 24.8623C93.5451 24.8623 94.2677 24.5572 94.7815 23.947C95.2954 23.3208 95.5523 22.4537 95.5523 21.3457V15.276H98.5872V27.2228H95.6005V25.6572H95.1669C94.9742 26.0586 94.6129 26.452 94.083 26.8374C93.5531 27.2228 92.7502 27.4155 91.6744 27.4155Z" fill="#393939"/>
<path d="M100.76 27.2228V15.276H103.747V16.6248H104.18C104.357 16.1431 104.646 15.7898 105.047 15.565C105.465 15.3402 105.947 15.2278 106.493 15.2278H107.938V17.9255H106.444C105.674 17.9255 105.039 18.1342 104.542 18.5517C104.044 18.9531 103.795 19.5794 103.795 20.4304V27.2228H100.76Z" fill="#393939"/>
<path d="M109.106 27.2228V15.276H112.14V27.2228H109.106ZM110.623 13.879C110.077 13.879 109.611 13.7023 109.226 13.3491C108.857 12.9958 108.672 12.5301 108.672 11.9521C108.672 11.374 108.857 10.9083 109.226 10.555C109.611 10.2018 110.077 10.0251 110.623 10.0251C111.185 10.0251 111.651 10.2018 112.02 10.555C112.389 10.9083 112.574 11.374 112.574 11.9521C112.574 12.5301 112.389 12.9958 112.02 13.3491C111.651 13.7023 111.185 13.879 110.623 13.879Z" fill="#393939"/>
<path d="M119.984 27.56C118.795 27.56 117.727 27.3191 116.78 26.8374C115.833 26.3557 115.086 25.6572 114.54 24.7419C113.994 23.8266 113.721 22.7267 113.721 21.4421V21.0567C113.721 19.7721 113.994 18.6721 114.54 17.7569C115.086 16.8416 115.833 16.1431 116.78 15.6613C117.727 15.1796 118.795 14.9388 119.984 14.9388C121.172 14.9388 122.24 15.1796 123.187 15.6613C124.134 16.1431 124.881 16.8416 125.427 17.7569C125.973 18.6721 126.246 19.7721 126.246 21.0567V21.4421C126.246 22.7267 125.973 23.8266 125.427 24.7419C124.881 25.6572 124.134 26.3557 123.187 26.8374C122.24 27.3191 121.172 27.56 119.984 27.56ZM119.984 24.8623C120.915 24.8623 121.686 24.5653 122.296 23.9711C122.906 23.3609 123.211 22.4938 123.211 21.3698V21.1289C123.211 20.0049 122.906 19.1458 122.296 18.5517C121.702 17.9415 120.931 17.6364 119.984 17.6364C119.052 17.6364 118.281 17.9415 117.671 18.5517C117.061 19.1458 116.756 20.0049 116.756 21.1289V21.3698C116.756 22.4938 117.061 23.3609 117.671 23.9711C118.281 24.5653 119.052 24.8623 119.984 24.8623Z" fill="#393939"/>
<path d="M132.395 27.4155C131.464 27.4155 130.645 27.2067 129.939 26.7892C129.248 26.3557 128.71 25.7615 128.325 25.0068C127.939 24.2521 127.747 23.385 127.747 22.4055V15.276H130.782V22.1647C130.782 23.0639 130.998 23.7383 131.432 24.1879C131.882 24.6375 132.516 24.8623 133.335 24.8623C134.266 24.8623 134.989 24.5572 135.502 23.947C136.016 23.3208 136.273 22.4537 136.273 21.3457V15.276H139.308V27.2228H136.321V25.6572H135.888C135.695 26.0586 135.334 26.452 134.804 26.8374C134.274 27.2228 133.471 27.4155 132.395 27.4155Z" fill="#393939"/>
<path d="M146.443 27.56C144.885 27.56 143.609 27.2228 142.613 26.5484C141.617 25.874 141.015 24.9105 140.807 23.658L143.601 22.9354C143.713 23.4974 143.898 23.939 144.155 24.2602C144.428 24.5813 144.757 24.8142 145.142 24.9587C145.544 25.0871 145.977 25.1514 146.443 25.1514C147.149 25.1514 147.671 25.0309 148.008 24.7901C148.346 24.5331 148.514 24.22 148.514 23.8507C148.514 23.4814 148.354 23.2004 148.032 23.0077C147.711 22.7989 147.197 22.6303 146.491 22.5019L145.817 22.3814C144.982 22.2209 144.219 22.0041 143.528 21.7311C142.838 21.4421 142.284 21.0487 141.866 20.5509C141.449 20.0531 141.24 19.4108 141.24 18.624C141.24 17.4357 141.674 16.5285 142.541 15.9022C143.408 15.2599 144.548 14.9388 145.961 14.9388C147.294 14.9388 148.402 15.2358 149.285 15.83C150.168 16.4241 150.746 17.2029 151.019 18.1663L148.201 19.0334C148.073 18.4232 147.808 17.9897 147.406 17.7328C147.021 17.4759 146.539 17.3474 145.961 17.3474C145.383 17.3474 144.941 17.4518 144.636 17.6605C144.331 17.8532 144.179 18.1262 144.179 18.4794C144.179 18.8648 144.339 19.1539 144.66 19.3466C144.982 19.5232 145.415 19.6597 145.961 19.756L146.635 19.8765C147.535 20.037 148.346 20.2538 149.068 20.5268C149.807 20.7837 150.385 21.1611 150.802 21.6588C151.236 22.1406 151.453 22.7989 151.453 23.6339C151.453 24.8864 150.995 25.8579 150.08 26.5484C149.181 27.2228 147.968 27.56 146.443 27.56Z" fill="#393939"/>
</svg>
