<svg width="190" height="48" viewBox="0 0 190 48" fill="none" xmlns="http://www.w3.org/2000/svg">
<g opacity="0.3">
<path d="M21.83 4C18.19 4 15.25 6.90426 15.25 10.5C15.25 14.0681 18.19 16.9723 21.802 17C20.906 16.9723 20.206 16.2532 20.206 15.3681C20.206 14.483 20.934 13.7362 21.858 13.7362C25.778 13.7362 34.486 13.7362 38.322 13.7362C41.038 13.7362 43.25 11.5511 43.25 8.86812C43.25 6.1851 41.038 4 38.322 4L21.83 4Z" fill="white"/>
<path d="M13.83 17C10.19 17 7.25 19.9043 7.25 23.5C7.25 27.0681 10.19 29.9723 13.802 30C12.906 29.9723 12.206 29.2532 12.206 28.3681C12.206 27.483 12.934 26.7362 13.858 26.7362C17.778 26.7362 26.486 26.7362 30.322 26.7362C33.038 26.7362 35.25 24.5511 35.25 21.8681C35.25 19.1851 33.038 17 30.322 17L13.83 17Z" fill="white"/>
<path d="M8.3 30C4.4 30 1.25 33.1277 1.25 37C1.25 40.8426 4.4 43.9702 8.26998 44C7.30999 43.9702 6.56 43.1958 6.56 42.2425C6.56 41.2894 7.34002 40.4851 8.33003 40.4851C12.53 40.4851 21.86 40.4851 25.97 40.4851C28.88 40.4851 31.25 38.1319 31.25 35.2426C31.25 32.3532 28.88 30 25.97 30L8.3 30Z" fill="white"/>
<path d="M53.2305 33.9083V12.9083H66.7305V16.5083H57.1905V21.5183H65.8905V25.1183H57.1905V30.3083H66.9105V33.9083H53.2305Z" fill="white"/>
<path d="M68.4618 39.9083V19.0283H72.1818V20.8283H72.7218C73.0618 20.2483 73.5918 19.7383 74.3118 19.2983C75.0318 18.8383 76.0618 18.6083 77.4018 18.6083C78.6018 18.6083 79.7118 18.9083 80.7318 19.5083C81.7518 20.0883 82.5718 20.9483 83.1918 22.0883C83.8118 23.2283 84.1218 24.6083 84.1218 26.2283V26.7083C84.1218 28.3283 83.8118 29.7083 83.1918 30.8483C82.5718 31.9883 81.7518 32.8583 80.7318 33.4583C79.7118 34.0383 78.6018 34.3283 77.4018 34.3283C76.5018 34.3283 75.7418 34.2183 75.1218 33.9983C74.5218 33.7983 74.0318 33.5383 73.6518 33.2183C73.2918 32.8783 73.0018 32.5383 72.7818 32.1983H72.2418V39.9083H68.4618ZM76.2618 31.0283C77.4418 31.0283 78.4118 30.6583 79.1718 29.9183C79.9518 29.1583 80.3418 28.0583 80.3418 26.6183V26.3183C80.3418 24.8783 79.9518 23.7883 79.1718 23.0483C78.3918 22.2883 77.4218 21.9083 76.2618 21.9083C75.1018 21.9083 74.1318 22.2883 73.3518 23.0483C72.5718 23.7883 72.1818 24.8783 72.1818 26.3183V26.6183C72.1818 28.0583 72.5718 29.1583 73.3518 29.9183C74.1318 30.6583 75.1018 31.0283 76.2618 31.0283Z" fill="white"/>
<path d="M86.0927 33.9083V19.0283H89.8727V33.9083H86.0927ZM87.9827 17.2883C87.3027 17.2883 86.7227 17.0683 86.2427 16.6283C85.7827 16.1883 85.5527 15.6083 85.5527 14.8883C85.5527 14.1683 85.7827 13.5883 86.2427 13.1483C86.7227 12.7083 87.3027 12.4883 87.9827 12.4883C88.6827 12.4883 89.2627 12.7083 89.7227 13.1483C90.1827 13.5883 90.4127 14.1683 90.4127 14.8883C90.4127 15.6083 90.1827 16.1883 89.7227 16.6283C89.2627 17.0683 88.6827 17.2883 87.9827 17.2883Z" fill="white"/>
<path d="M99.5514 34.3283C98.1114 34.3283 96.8014 34.0283 95.6214 33.4283C94.4614 32.8283 93.5414 31.9583 92.8614 30.8183C92.1814 29.6783 91.8414 28.2983 91.8414 26.6783V26.2583C91.8414 24.6383 92.1814 23.2583 92.8614 22.1183C93.5414 20.9783 94.4614 20.1083 95.6214 19.5083C96.8014 18.9083 98.1114 18.6083 99.5514 18.6083C100.971 18.6083 102.191 18.8583 103.211 19.3583C104.231 19.8583 105.051 20.5483 105.671 21.4283C106.311 22.2883 106.731 23.2683 106.931 24.3683L103.271 25.1483C103.191 24.5483 103.011 24.0083 102.731 23.5283C102.451 23.0483 102.051 22.6683 101.531 22.3883C101.031 22.1083 100.401 21.9683 99.6414 21.9683C98.8814 21.9683 98.1914 22.1383 97.5714 22.4783C96.9714 22.7983 96.4914 23.2883 96.1314 23.9483C95.7914 24.5883 95.6214 25.3783 95.6214 26.3183V26.6183C95.6214 27.5583 95.7914 28.3583 96.1314 29.0183C96.4914 29.6583 96.9714 30.1483 97.5714 30.4883C98.1914 30.8083 98.8814 30.9683 99.6414 30.9683C100.781 30.9683 101.641 30.6783 102.221 30.0983C102.821 29.4983 103.201 28.7183 103.361 27.7583L107.021 28.6283C106.761 29.6883 106.311 30.6583 105.671 31.5383C105.051 32.3983 104.231 33.0783 103.211 33.5783C102.191 34.0783 100.971 34.3283 99.5514 34.3283Z" fill="white"/>
<path d="M114.31 34.1483C113.15 34.1483 112.13 33.8883 111.25 33.3683C110.39 32.8283 109.72 32.0883 109.24 31.1483C108.76 30.2083 108.52 29.1283 108.52 27.9083V19.0283H112.3V27.6083C112.3 28.7283 112.57 29.5683 113.11 30.1283C113.67 30.6883 114.46 30.9683 115.48 30.9683C116.64 30.9683 117.54 30.5883 118.18 29.8283C118.82 29.0483 119.14 27.9683 119.14 26.5883V19.0283H122.92V33.9083H119.2V31.9583H118.66C118.42 32.4583 117.97 32.9483 117.31 33.4283C116.65 33.9083 115.65 34.1483 114.31 34.1483Z" fill="white"/>
<path d="M125.626 33.9083V19.0283H129.346V20.7083H129.886C130.106 20.1083 130.466 19.6683 130.966 19.3883C131.486 19.1083 132.086 18.9683 132.766 18.9683H134.566V22.3283H132.706C131.746 22.3283 130.956 22.5883 130.336 23.1083C129.716 23.6083 129.406 24.3883 129.406 25.4483V33.9083H125.626Z" fill="white"/>
<path d="M136.02 33.9083V19.0283H139.8V33.9083H136.02ZM137.91 17.2883C137.23 17.2883 136.65 17.0683 136.17 16.6283C135.71 16.1883 135.48 15.6083 135.48 14.8883C135.48 14.1683 135.71 13.5883 136.17 13.1483C136.65 12.7083 137.23 12.4883 137.91 12.4883C138.61 12.4883 139.19 12.7083 139.65 13.1483C140.11 13.5883 140.34 14.1683 140.34 14.8883C140.34 15.6083 140.11 16.1883 139.65 16.6283C139.19 17.0683 138.61 17.2883 137.91 17.2883Z" fill="white"/>
<path d="M149.569 34.3283C148.089 34.3283 146.759 34.0283 145.579 33.4283C144.399 32.8283 143.469 31.9583 142.789 30.8183C142.109 29.6783 141.769 28.3083 141.769 26.7083V26.2283C141.769 24.6283 142.109 23.2583 142.789 22.1183C143.469 20.9783 144.399 20.1083 145.579 19.5083C146.759 18.9083 148.089 18.6083 149.569 18.6083C151.049 18.6083 152.379 18.9083 153.559 19.5083C154.739 20.1083 155.669 20.9783 156.349 22.1183C157.029 23.2583 157.369 24.6283 157.369 26.2283V26.7083C157.369 28.3083 157.029 29.6783 156.349 30.8183C155.669 31.9583 154.739 32.8283 153.559 33.4283C152.379 34.0283 151.049 34.3283 149.569 34.3283ZM149.569 30.9683C150.729 30.9683 151.689 30.5983 152.449 29.8583C153.209 29.0983 153.589 28.0183 153.589 26.6183V26.3183C153.589 24.9183 153.209 23.8483 152.449 23.1083C151.709 22.3483 150.749 21.9683 149.569 21.9683C148.409 21.9683 147.449 22.3483 146.689 23.1083C145.929 23.8483 145.549 24.9183 145.549 26.3183V26.6183C145.549 28.0183 145.929 29.0983 146.689 29.8583C147.449 30.5983 148.409 30.9683 149.569 30.9683Z" fill="white"/>
<path d="M165.028 34.1483C163.868 34.1483 162.848 33.8883 161.968 33.3683C161.108 32.8283 160.438 32.0883 159.958 31.1483C159.478 30.2083 159.238 29.1283 159.238 27.9083V19.0283H163.018V27.6083C163.018 28.7283 163.288 29.5683 163.828 30.1283C164.388 30.6883 165.178 30.9683 166.198 30.9683C167.358 30.9683 168.258 30.5883 168.898 29.8283C169.538 29.0483 169.858 27.9683 169.858 26.5883V19.0283H173.638V33.9083H169.918V31.9583H169.378C169.138 32.4583 168.688 32.9483 168.028 33.4283C167.368 33.9083 166.368 34.1483 165.028 34.1483Z" fill="white"/>
<path d="M182.525 34.3283C180.585 34.3283 178.995 33.9083 177.755 33.0683C176.515 32.2283 175.765 31.0283 175.505 29.4683L178.985 28.5683C179.125 29.2683 179.355 29.8183 179.675 30.2183C180.015 30.6183 180.425 30.9083 180.905 31.0883C181.405 31.2483 181.945 31.3283 182.525 31.3283C183.405 31.3283 184.055 31.1783 184.475 30.8783C184.895 30.5583 185.105 30.1683 185.105 29.7083C185.105 29.2483 184.905 28.8983 184.505 28.6583C184.105 28.3983 183.465 28.1883 182.585 28.0283L181.745 27.8783C180.705 27.6783 179.755 27.4083 178.895 27.0683C178.035 26.7083 177.345 26.2183 176.825 25.5983C176.305 24.9783 176.045 24.1783 176.045 23.1983C176.045 21.7183 176.585 20.5883 177.665 19.8083C178.745 19.0083 180.165 18.6083 181.925 18.6083C183.585 18.6083 184.965 18.9783 186.065 19.7183C187.165 20.4583 187.885 21.4283 188.225 22.6283L184.715 23.7083C184.555 22.9483 184.225 22.4083 183.725 22.0883C183.245 21.7683 182.645 21.6083 181.925 21.6083C181.205 21.6083 180.655 21.7383 180.275 21.9983C179.895 22.2383 179.705 22.5783 179.705 23.0183C179.705 23.4983 179.905 23.8583 180.305 24.0983C180.705 24.3183 181.245 24.4883 181.925 24.6083L182.765 24.7583C183.885 24.9583 184.895 25.2283 185.795 25.5683C186.715 25.8883 187.435 26.3583 187.955 26.9783C188.495 27.5783 188.765 28.3983 188.765 29.4383C188.765 30.9983 188.195 32.2083 187.055 33.0683C185.935 33.9083 184.425 34.3283 182.525 34.3283Z" fill="white"/>
</g>
</svg>
