<svg width="262" height="60" viewBox="0 0 262 60" fill="none" xmlns="http://www.w3.org/2000/svg">
<g clip-path="url(#clip0_89_14804)">
<mask id="mask0_89_14804" style="mask-type:luminance" maskUnits="userSpaceOnUse" x="0" y="0" width="60" height="60">
<path d="M59.8537 0H0V59.8825H59.8537V0Z" fill="white"/>
</mask>
<g mask="url(#mask0_89_14804)">
<path d="M48.7141 0H11.1397C4.9874 0 0 4.9898 0 11.145V48.7375C0 54.8928 4.9874 59.8825 11.1397 59.8825H48.7141C54.8664 59.8825 59.8537 54.8928 59.8537 48.7375V11.145C59.8537 4.9898 54.8664 0 48.7141 0Z" fill="white"/>
<path d="M44.9505 22.6354V12.9274L29.9268 4.24902L14.9033 12.9274V21.9489L32.4768 32.1001L29.9268 33.5731L14.9033 24.8946V34.6028L29.9268 43.2811L44.9505 34.6028V25.5811L27.3768 15.43L29.9268 13.9571L44.9505 22.6354ZM16.0912 13.6138L29.9268 5.61942L43.7625 13.6138V16.5595L29.9268 8.59589L16.0912 16.5595V13.6138ZM16.0912 21.2624V18.6164L35.9562 30.092L33.6649 31.4161L16.0912 21.2651V21.2624ZM43.7651 33.9137L29.9294 41.9081L16.0938 33.9137V30.968L29.9294 38.9598L43.7651 30.968V33.9137ZM43.7651 26.2651V28.9111L23.9 17.4355L26.1914 16.1114L43.7651 26.2624V26.2651ZM26.1889 14.7435L25.8919 14.9151L21.5241 17.4381L43.1711 29.9408L29.9268 37.592L16.0912 29.5975V26.9515L29.9268 34.9434L33.6649 32.784L33.9618 32.6124L38.3297 30.0894L16.6852 17.5867L29.9268 9.96629L43.7625 17.93V20.576L29.9268 12.5841L26.1889 14.7435Z" fill="black"/>
<path d="M29.9268 45.9273L14.9033 37.249V46.957L29.9268 55.6353L44.9505 46.957V37.249L29.9268 45.9273ZM43.7651 46.2706L29.9294 54.2624L16.0938 46.2706V43.3249L29.9294 51.3167L43.7651 43.3249V46.2706ZM43.7651 41.9519L29.9294 49.9438L16.0938 41.9519V39.3059L29.9294 47.2978L43.7651 39.3059V41.9519Z" fill="black"/>
</g>
<mask id="mask1_89_14804" style="mask-type:luminance" maskUnits="userSpaceOnUse" x="70" y="16" width="192" height="28">
<path d="M261.413 16.1377H70.151V43.8914H261.413V16.1377Z" fill="white"/>
</mask>
<g mask="url(#mask1_89_14804)">
<path d="M80.0644 43.8913C78.0904 43.8913 76.2061 43.5892 74.4062 42.9845C72.6064 42.3801 71.1881 41.5962 70.1536 40.6358L71.5234 37.7489C72.5091 38.6121 73.7662 39.3269 75.2972 39.8955C76.8256 40.4641 78.4157 40.7459 80.0695 40.7459C81.5724 40.7459 82.7937 40.5742 83.7306 40.2284C84.6677 39.8827 85.3591 39.4087 85.8019 38.8042C86.2448 38.1998 86.4676 37.5158 86.4676 36.7499C86.4676 35.8612 86.1784 35.1464 85.5997 34.6035C85.0211 34.0604 84.2684 33.6224 83.344 33.2893C82.4199 32.9564 81.4034 32.667 80.2923 32.421C79.1837 32.1752 78.0674 31.8856 76.9461 31.5527C75.8246 31.2196 74.8005 30.7945 73.8763 30.277C72.952 29.7596 72.2045 29.0629 71.6386 28.1869C71.0703 27.3109 70.7885 26.1838 70.7885 24.8005C70.7885 23.4173 71.1393 22.2416 71.8434 21.1198C72.5449 19.9978 73.6304 19.0961 75.0976 18.4173C76.5645 17.7385 78.431 17.4004 80.7019 17.4004C82.2047 17.4004 83.6974 17.5976 85.1772 17.9921C86.6571 18.3865 87.9398 18.9553 89.0227 19.6955L87.8014 22.6567C86.6929 21.9164 85.5204 21.381 84.2888 21.0481C83.0548 20.715 81.8591 20.5485 80.7019 20.5485C79.2477 20.5485 78.052 20.733 77.115 21.1044C76.178 21.4732 75.4943 21.9676 75.0617 22.5849C74.629 23.2022 74.4139 23.8938 74.4139 24.6572C74.4139 25.569 74.7033 26.299 75.2818 26.8395C75.8604 27.3825 76.6131 27.8155 77.5375 28.1356C78.4616 28.4558 79.4781 28.7453 80.5892 29.0039C81.6979 29.2627 82.8141 29.5521 83.9355 29.8724C85.0569 30.1925 86.081 30.6125 87.0052 31.1301C87.9295 31.6475 88.6746 32.339 89.2429 33.2022C89.8088 34.0655 90.093 35.1772 90.093 36.5322C90.093 37.8873 89.7345 39.0553 89.0202 40.1772C88.3058 41.2992 87.2023 42.2009 85.7098 42.8796C84.2172 43.5584 82.3379 43.8965 80.0695 43.8965L80.0644 43.8913Z" fill="white"/>
<path d="M103.404 39.8955C102.664 40.5103 101.74 40.8201 100.628 40.8201C99.6427 40.8201 98.8849 40.5358 98.3548 39.9698C97.8249 39.4012 97.5586 38.5866 97.5586 37.5261V19.6904H94.0075V37.6747C94.0075 39.647 94.5504 41.166 95.6358 42.2264C96.7215 43.2869 98.25 43.8172 100.221 43.8172C101.036 43.8172 101.819 43.707 102.572 43.4841C103.324 43.2614 103.97 42.9181 104.512 42.4467L103.404 39.8955ZM99.6631 23.9835L97.5586 26.9061H103.181V23.9835H99.6631ZM90.6767 23.9835V26.9061H97.5561V23.9835H90.6767Z" fill="white"/>
<path d="M115.053 43.8175C113.079 43.8175 111.33 43.387 109.802 42.5213C108.273 41.6581 107.065 40.467 106.176 38.9506C105.288 37.4343 104.845 35.7129 104.845 33.7892C104.845 31.8655 105.288 30.1135 106.176 28.6073C107.065 27.1036 108.273 25.9253 109.802 25.0724C111.33 24.222 113.082 23.7969 115.053 23.7969C117.024 23.7969 118.745 24.222 120.286 25.0724C121.827 25.9229 123.036 27.096 123.911 28.5869C124.787 30.0801 125.225 31.8116 125.225 33.7866C125.225 35.7615 124.787 37.4624 123.911 38.9686C123.036 40.4747 121.827 41.6581 120.286 42.5213C118.745 43.3846 117.001 43.8175 115.053 43.8175ZM115.053 40.7078C116.31 40.7078 117.439 40.4235 118.438 39.8573C119.436 39.2913 120.22 38.4818 120.785 37.4343C121.351 36.3866 121.635 35.1698 121.635 33.7892C121.635 32.4086 121.351 31.1687 120.785 30.1443C120.217 29.1196 119.436 28.3255 118.438 27.7569C117.439 27.1907 116.31 26.9064 115.053 26.9064C113.796 26.9064 112.672 27.1907 111.686 27.7569C110.7 28.3255 109.912 29.1196 109.318 30.1443C108.726 31.1687 108.43 32.3829 108.43 33.7892C108.43 35.1955 108.726 36.3866 109.318 37.4343C109.909 38.4818 110.698 39.2913 111.686 39.8573C112.672 40.426 113.793 40.7078 115.053 40.7078Z" fill="white"/>
<path d="M137.209 43.8172C135.212 43.8172 133.43 43.3867 131.864 42.521C130.297 41.6578 129.07 40.4744 128.184 38.9683C127.296 37.4646 126.853 35.7356 126.853 33.7863C126.853 31.837 127.296 30.1106 128.184 28.6044C129.073 27.1009 130.299 25.9226 131.864 25.0696C133.428 24.2192 135.21 23.7939 137.209 23.7939C138.984 23.7939 140.569 24.1449 141.961 24.8493C143.354 25.5512 144.432 26.5936 145.197 27.9769L142.496 29.7161C141.854 28.753 141.073 28.0459 140.149 27.5875C139.224 27.1316 138.231 26.9036 137.171 26.9036C135.888 26.9036 134.741 27.1879 133.73 27.7539C132.719 28.3227 131.917 29.1167 131.326 30.1413C130.734 31.1659 130.438 32.3801 130.438 33.7863C130.438 35.1926 130.734 36.4144 131.326 37.4492C131.917 38.4841 132.719 39.2884 133.73 39.8546C134.741 40.4232 135.888 40.7049 137.171 40.7049C138.231 40.7049 139.224 40.4769 140.149 40.021C141.073 39.565 141.856 38.8555 142.496 37.8924L145.197 39.5958C144.432 40.9533 143.354 41.9959 141.961 42.7233C140.569 43.4509 138.984 43.8146 137.209 43.8146V43.8172Z" fill="white"/>
<path d="M166.578 23.9835L158.332 32.0906L155.653 34.4446L151.596 38.2357L151.572 38.2588L151.596 43.5943H148.047V16.1377H151.596V33.7658L162.285 23.9835H166.578Z" fill="white"/>
<path d="M177.009 43.5942L165.616 17.6924H169.609L180.076 41.5988H177.782L188.325 17.6924H192.024L180.67 43.5968H177.009V43.5942Z" fill="white"/>
<path d="M200.568 43.8172C198.471 43.8172 196.628 43.3867 195.038 42.521C193.448 41.6578 192.214 40.4744 191.339 38.9683C190.462 37.4646 190.025 35.7356 190.025 33.7863C190.025 31.837 190.45 30.1106 191.3 28.6044C192.151 27.1009 193.322 25.9226 194.812 25.0696C196.306 24.2192 197.988 23.7939 199.861 23.7939C201.735 23.7939 203.436 24.2141 204.892 25.0516C206.347 25.8918 207.488 27.0675 208.314 28.5866C209.139 30.1029 209.551 31.8729 209.551 33.8964C209.551 34.045 209.547 34.2167 209.535 34.4139C209.521 34.6112 209.504 34.7955 209.478 34.9698H192.798V32.4159H207.629L206.188 33.3047C206.213 32.047 205.952 30.9252 205.412 29.9364C204.869 28.9503 204.125 28.1792 203.175 27.6233C202.224 27.0675 201.122 26.7909 199.864 26.7909C198.608 26.7909 197.534 27.0675 196.572 27.6233C195.609 28.1792 194.859 28.9553 194.316 29.9543C193.773 30.9533 193.502 32.0958 193.502 33.3764V33.9683C193.502 35.2772 193.804 36.4426 194.408 37.4646C195.012 38.4892 195.857 39.2833 196.942 39.8519C198.028 40.4206 199.273 40.7024 200.679 40.7024C201.838 40.7024 202.89 40.5052 203.84 40.1106C204.791 39.7161 205.623 39.1244 206.336 38.3355L208.298 40.6306C207.409 41.6655 206.305 42.457 204.988 42.9999C203.668 43.543 202.193 43.8146 200.568 43.8146V43.8172Z" fill="white"/>
<path d="M212.996 43.5941V23.9833H216.399V29.3111L216.065 27.9793C216.608 26.6216 217.52 25.5868 218.802 24.8721C220.085 24.1574 221.663 23.7988 223.536 23.7988V27.2414C223.388 27.2159 223.246 27.2056 223.111 27.2056H222.722C220.823 27.2056 219.319 27.7744 218.21 28.9065C217.102 30.0413 216.547 31.6831 216.547 33.8271V43.5967H212.996V43.5941Z" fill="white"/>
<path d="M232.267 43.8175C230.638 43.8175 229.091 43.5946 227.624 43.1515C226.157 42.7083 225.006 42.1653 224.166 41.5223L225.645 38.7098C226.483 39.2784 227.52 39.7575 228.751 40.152C229.983 40.5464 231.243 40.7436 232.525 40.7436C234.177 40.7436 235.367 40.5106 236.094 40.0418C236.821 39.573 237.184 38.9198 237.184 38.0796C237.184 37.4624 236.963 36.9833 236.519 36.6375C236.076 36.2918 235.49 36.033 234.762 35.8615C234.035 35.6898 233.226 35.5335 232.341 35.3978C231.453 35.2621 230.566 35.0904 229.679 34.8804C228.79 34.6704 227.975 34.3758 227.238 33.9915C226.499 33.61 225.907 33.0796 225.464 32.4009C225.021 31.7221 224.798 30.8153 224.798 29.6806C224.798 28.5458 225.132 27.4598 225.798 26.5735C226.462 25.6846 227.404 25.0007 228.625 24.5192C229.848 24.0376 231.293 23.7969 232.971 23.7969C234.253 23.7969 235.554 23.9506 236.872 24.2604C238.192 24.5704 239.271 25.0058 240.109 25.5744L238.593 28.387C237.704 27.7953 236.78 27.388 235.82 27.1652C234.858 26.9423 233.898 26.8321 232.936 26.8321C231.381 26.8321 230.222 27.0858 229.459 27.5904C228.693 28.095 228.312 28.743 228.312 29.532C228.312 30.198 228.539 30.7103 228.994 31.0689C229.451 31.4275 230.042 31.7041 230.769 31.9013C231.496 32.0986 232.305 32.265 233.191 32.4009C234.08 32.5366 234.965 32.7109 235.854 32.9183C236.742 33.1283 237.549 33.4178 238.276 33.7866C239.003 34.1555 239.594 34.6755 240.049 35.3415C240.506 36.0075 240.733 36.8963 240.733 38.0053C240.733 39.1889 240.387 40.2133 239.697 41.0766C239.005 41.9398 238.032 42.6135 236.775 43.0926C235.517 43.5741 234.012 43.8149 232.264 43.8149L232.267 43.8175Z" fill="white"/>
<path d="M252.424 43.8172C250.328 43.8172 248.484 43.3867 246.894 42.521C245.304 41.6578 244.069 40.4744 243.194 38.9683C242.319 37.4646 241.881 35.7356 241.881 33.7863C241.881 31.837 242.305 30.1106 243.156 28.6044C244.006 27.1009 245.178 25.9226 246.668 25.0696C248.161 24.2192 249.843 23.7939 251.718 23.7939C253.592 23.7939 255.291 24.2141 256.748 25.0516C258.202 25.8918 259.345 27.0675 260.169 28.5866C260.996 30.1029 261.408 31.8729 261.408 33.8964C261.408 34.045 261.402 34.2167 261.39 34.4139C261.378 34.6112 261.359 34.7955 261.333 34.9698H244.653V32.4159H259.485L258.044 33.3047C258.07 32.047 257.809 30.9252 257.267 29.9364C256.725 28.9503 255.98 28.1792 255.03 27.6233C254.081 27.0675 252.977 26.7909 251.719 26.7909C250.463 26.7909 249.39 27.0675 248.427 27.6233C247.464 28.1792 246.714 28.9553 246.171 29.9543C245.628 30.9533 245.358 32.0958 245.358 33.3764V33.9683C245.358 35.2772 245.659 36.4426 246.263 37.4646C246.868 38.4892 247.713 39.2833 248.799 39.8519C249.885 40.4206 251.129 40.7024 252.534 40.7024C253.694 40.7024 254.745 40.5052 255.696 40.1106C256.646 39.7161 257.478 39.1244 258.192 38.3355L260.154 40.6306C259.265 41.6655 258.161 42.457 256.843 42.9999C255.525 43.543 254.05 43.8146 252.424 43.8146V43.8172Z" fill="white"/>
<path d="M167.39 43.594H163.025L156.603 35.6279L155.653 34.4443L160.2 34.465L167.39 43.594Z" fill="white"/>
</g>
</g>
<defs>
<clipPath id="clip0_89_14804">
<rect width="261.413" height="60" fill="white"/>
</clipPath>
</defs>
</svg>
