<svg width="24" height="24" viewBox="0 0 24 24" fill="none" xmlns="http://www.w3.org/2000/svg">
<circle cx="12" cy="12" r="12" fill="#0090BA"/>
<mask id="mask0_4_140" style="mask-type:alpha" maskUnits="userSpaceOnUse" x="0" y="0" width="24" height="24">
<circle cx="12" cy="12" r="12" fill="white"/>
</mask>
<g mask="url(#mask0_4_140)">
<path d="M1.19995 1.19995H22.8V22.8H1.19995V1.19995Z" fill="#0090BA"/>
<path d="M14.8081 7.36792H17.4001L15.0001 14.0039C14.9679 14.0924 14.9091 14.1688 14.8317 14.2225C14.7544 14.2762 14.6623 14.3046 14.5681 14.3039H12.0241C12.1099 14.2954 12.1916 14.2626 12.2595 14.2095C12.3275 14.1564 12.379 14.0851 12.4081 14.0039L14.8081 7.36792ZM11.8081 14.2079C11.7235 14.2075 11.6409 14.1823 11.5705 14.1354C11.5001 14.0884 11.445 14.0219 11.4121 13.9439L10.8961 12.5159L11.7841 10.0799C11.811 9.99425 11.8639 9.9191 11.9355 9.8649C12.0071 9.8107 12.0938 9.78016 12.1836 9.77752C12.2733 9.77488 12.3617 9.80028 12.4363 9.85017C12.511 9.90007 12.5682 9.97198 12.6001 10.0559L13.1161 11.4839L12.2281 13.9199C12.1983 14.0043 12.143 14.0773 12.0699 14.1289C11.9968 14.1804 11.9096 14.2081 11.8201 14.2079H11.8081ZM12.0001 9.69592C11.8081 9.69592 11.6521 9.81592 11.5921 9.99592L9.1921 16.6319H6.6001L9.0001 9.99592C9.0721 9.81592 9.2401 9.69592 9.4321 9.69592H12.0001Z" fill="white"/>
</g>
</svg>
