<svg width="147" height="39" viewBox="0 0 147 39" fill="none" xmlns="http://www.w3.org/2000/svg">
<g clip-path="url(#clip0_17127_14123)">
<path d="M21.894 3.30867L18.5052 2.40063L15.6495 13.0586L13.0712 3.43651L9.68238 4.34455L12.468 14.7405L5.52966 7.80214L3.04888 10.2829L10.6594 17.8935L1.18171 15.3539L0.273682 18.7427L10.6292 21.5175C10.5107 21.0061 10.4479 20.4733 10.4479 19.9258C10.4479 16.0506 13.5894 12.9091 17.4647 12.9091C21.3399 12.9091 24.4814 16.0506 24.4814 19.9258C24.4814 20.4697 24.4194 20.9993 24.3023 21.5077L33.7136 24.0294L34.6216 20.6406L24.2249 17.8548L33.7032 15.3151L32.7951 11.9263L22.3988 14.7119L29.3372 7.77366L26.8564 5.29288L19.3514 12.7978L21.894 3.30867Z" fill="#393939"/>
<path d="M24.2924 21.5471C24.0019 22.7754 23.3885 23.8789 22.5469 24.763L29.3649 31.5812L31.8457 29.1004L24.2924 21.5471Z" fill="#393939"/>
<path d="M22.478 24.8343C21.6262 25.7043 20.5498 26.3535 19.3427 26.6881L21.8236 35.9471L25.2124 35.0391L22.478 24.8343Z" fill="#393939"/>
<path d="M19.2161 26.722C18.656 26.866 18.069 26.9425 17.4641 26.9425C16.816 26.9425 16.1884 26.8546 15.5925 26.6901L13.1093 35.9576L16.4981 36.8656L19.2161 26.722Z" fill="#393939"/>
<path d="M15.4727 26.6559C14.284 26.3047 13.2267 25.6472 12.3923 24.7748L5.5575 31.6096L8.03828 34.0904L15.4727 26.6559Z" fill="#393939"/>
<path d="M12.336 24.7143C11.5159 23.8363 10.9185 22.7476 10.6342 21.5382L1.19221 24.0682L2.10023 27.457L12.336 24.7143Z" fill="#393939"/>
</g>
<path d="M55.013 10.3633V22.5751L47.1849 10.3633H44.0537V27.2237H47.1849V15.1083L55.013 27.2237H58.1442V10.3633H55.013Z" fill="#393939"/>
<path d="M59.5551 13.5186H62.7827V10.3633H59.5551V13.5186ZM59.6033 27.2237V15.1805H62.7345V27.2237H59.6033Z" fill="#393939"/>
<path d="M76.2069 21.2021C76.2069 17.0352 73.2443 15.0601 70.1131 15.036C66.9577 15.0119 64.0433 17.0352 64.0433 21.2021C64.0433 25.3691 66.9577 27.3923 70.1131 27.3682C72.9793 27.3441 74.9544 26.0194 75.8697 23.8275L73.437 22.8159C72.6903 24.3093 71.5101 24.8392 70.1131 24.8633C68.9087 24.8873 67.5358 24.3093 67.2468 22.1656H76.1346C76.1828 21.8525 76.2069 21.5393 76.2069 21.2021ZM70.1131 17.5169C71.3174 17.541 72.5458 18.1913 72.9312 19.9256H67.295C67.7044 18.1673 68.9328 17.4928 70.1131 17.5169Z" fill="#393939"/>
<path d="M83.4433 17.4206V15.036H81.4683V11.8085L78.337 12.7719V15.036H76.3619V17.4206H78.337V23.6589C78.337 26.0194 78.5297 27.2237 82.1908 27.2237H83.0339V24.4779H82.1908C81.6128 24.4779 81.4683 24.3815 81.4683 23.6589V17.4206H83.4433Z" fill="#393939"/>
<path d="M88.0961 24.5983L94.744 17.806V15.1805H84.7722V17.806H91.2274L84.5795 24.5983V27.2237H94.8162V24.5983H88.0961Z" fill="#393939"/>
<path d="M95.9389 23.8275L99.0942 23.3458C99.311 24.5501 100.732 25.0078 101.599 25.0078C102.49 25.0078 104.032 24.8151 104.032 23.3699C104.032 20.5518 96.3002 24.0684 96.3002 18.6731C96.3002 15.2046 100.323 15.0119 101.599 15.0119C102.803 15.0119 106.296 15.2046 107.019 17.9986L104.032 18.6249C103.767 17.3483 102.418 17.1075 101.695 17.1075C100.973 17.1075 99.4314 17.2761 99.4314 18.6731C99.4314 21.4671 107.163 17.9023 107.163 23.3699C107.163 27.0551 102.924 27.3682 101.599 27.3682C100.395 27.3682 96.5651 27.0551 95.9389 23.8275Z" fill="#393939"/>
<path d="M111.231 21.2021C111.231 24.1407 112.796 25.0319 114.434 25.0078C115.904 24.9837 116.915 24.3815 117.517 22.6955L120.095 23.948C119.155 26.4048 116.867 27.3441 114.434 27.3682C111.279 27.3923 108.1 25.3691 108.1 21.2021C108.1 17.0352 111.279 15.0119 114.434 15.036C116.867 15.0601 119.155 15.9995 120.095 18.4563L117.517 19.7088C116.915 18.0227 115.904 17.4206 114.434 17.3965C112.796 17.3724 111.231 18.2636 111.231 21.2021Z" fill="#393939"/>
<path d="M128.501 14.9879C126.887 14.9879 125.418 15.8309 124.478 17.6374V10.3633H121.347V27.2237H124.478V22.9604C124.478 17.4447 126.766 16.987 127.609 16.987C128.958 16.987 129.151 18.384 129.151 20.4314V27.2237H132.282V20.4314C132.282 17.8782 131.873 14.9879 128.501 14.9879Z" fill="#393939"/>
<path d="M145.502 21.2021C145.502 17.0352 142.54 15.0601 139.408 15.036C136.253 15.0119 133.339 17.0352 133.339 21.2021C133.339 25.3691 136.253 27.3923 139.408 27.3682C142.275 27.3441 144.25 26.0194 145.165 23.8275L142.732 22.8159C141.986 24.3093 140.805 24.8392 139.408 24.8633C138.204 24.8873 136.831 24.3093 136.542 22.1656H145.43C145.478 21.8525 145.502 21.5393 145.502 21.2021ZM139.408 17.5169C140.613 17.541 141.841 18.1913 142.226 19.9256H136.59C137 18.1673 138.228 17.4928 139.408 17.5169Z" fill="#393939"/>
<defs>
<clipPath id="clip0_17127_14123">
<rect width="35.3266" height="35.3266" fill="white" transform="translate(0 1.60547)"/>
</clipPath>
</defs>
</svg>
