<svg width="183" height="48" viewBox="0 0 183 48" fill="none" xmlns="http://www.w3.org/2000/svg">
<g opacity="0.3">
<g clip-path="url(#clip0_17127_14158)">
<path d="M27.7694 4.12121L23.5486 2.99023L19.9917 16.2649L16.7804 4.28044L12.5595 5.41141L16.0291 18.3597L7.38724 9.71792L4.29738 12.8078L13.7764 22.2869L1.97179 19.1238L0.84082 23.3446L13.7388 26.8006C13.5912 26.1637 13.5131 25.5001 13.5131 24.8182C13.5131 19.9915 17.4258 16.0787 22.2525 16.0787C27.0792 16.0787 30.992 19.9915 30.992 24.8182C30.992 25.4957 30.9148 26.1552 30.769 26.7884L42.4909 29.9293L43.6218 25.7085L30.6725 22.2387L42.4779 19.0754L41.3469 14.8546L28.3981 18.3242L37.04 9.68244L33.9501 6.59258L24.6026 15.9402L27.7694 4.12121Z" fill="white"/>
<path d="M30.7567 26.8376C30.3948 28.3675 29.6308 29.7419 28.5825 30.8431L37.0745 39.3352L40.1644 36.2453L30.7567 26.8376Z" fill="white"/>
<path d="M28.4968 30.9318C27.4359 32.0154 26.0951 32.8241 24.5916 33.2408L27.6817 44.7731L31.9025 43.642L28.4968 30.9318Z" fill="white"/>
<path d="M24.434 33.283C23.7364 33.4623 23.0053 33.5576 22.2518 33.5576C21.4446 33.5576 20.6629 33.4481 19.9208 33.2433L16.8279 44.7861L21.0487 45.917L24.434 33.283Z" fill="white"/>
<path d="M19.7715 33.2007C18.291 32.7633 16.9741 31.9443 15.9348 30.8577L7.42192 39.3706L10.5118 42.4604L19.7715 33.2007Z" fill="white"/>
<path d="M15.8647 30.7824C14.8432 29.6888 14.0992 28.3328 13.7451 26.8265L1.98486 29.9776L3.11582 34.1984L15.8647 30.7824Z" fill="white"/>
</g>
<path d="M69.0201 12.9082V28.1182L59.2701 12.9082H55.3701V33.9082H59.2701V18.8182L69.0201 33.9082H72.9201V12.9082H69.0201Z" fill="white"/>
<path d="M74.6775 16.8382H78.6975V12.9082H74.6775V16.8382ZM74.7375 33.9082V18.9082H78.6375V33.9082H74.7375Z" fill="white"/>
<path d="M95.4175 26.4082C95.4175 21.2182 91.7275 18.7582 87.8275 18.7282C83.8975 18.6982 80.2675 21.2182 80.2675 26.4082C80.2675 31.5982 83.8975 34.1182 87.8275 34.0882C91.3975 34.0582 93.8575 32.4082 94.9975 29.6782L91.9675 28.4182C91.0375 30.2782 89.5675 30.9382 87.8275 30.9682C86.3275 30.9982 84.6175 30.2782 84.2575 27.6082H95.3275C95.3875 27.2182 95.4175 26.8282 95.4175 26.4082ZM87.8275 21.8182C89.3275 21.8482 90.8575 22.6582 91.3375 24.8182H84.3175C84.8275 22.6282 86.3575 21.7882 87.8275 21.8182Z" fill="white"/>
<path d="M104.431 21.6982V18.7282H101.971V14.7082L98.0707 15.9082V18.7282H95.6107V21.6982H98.0707V29.4682C98.0707 32.4082 98.3107 33.9082 102.871 33.9082H103.921V30.4882H102.871C102.151 30.4882 101.971 30.3682 101.971 29.4682V21.6982H104.431Z" fill="white"/>
<path d="M110.226 30.6382L118.506 22.1782V18.9082H106.086V22.1782H114.126L105.846 30.6382V33.9082H118.596V30.6382H110.226Z" fill="white"/>
<path d="M119.994 29.6782L123.924 29.0782C124.194 30.5782 125.964 31.1482 127.044 31.1482C128.154 31.1482 130.074 30.9082 130.074 29.1082C130.074 25.5982 120.444 29.9782 120.444 23.2582C120.444 18.9382 125.454 18.6982 127.044 18.6982C128.544 18.6982 132.894 18.9382 133.794 22.4182L130.074 23.1982C129.744 21.6082 128.064 21.3082 127.164 21.3082C126.264 21.3082 124.344 21.5182 124.344 23.2582C124.344 26.7382 133.974 22.2982 133.974 29.1082C133.974 33.6982 128.694 34.0882 127.044 34.0882C125.544 34.0882 120.774 33.6982 119.994 29.6782Z" fill="white"/>
<path d="M139.041 26.4082C139.041 30.0682 140.991 31.1782 143.031 31.1482C144.861 31.1182 146.121 30.3682 146.871 28.2682L150.081 29.8282C148.911 32.8882 146.061 34.0582 143.031 34.0882C139.101 34.1182 135.141 31.5982 135.141 26.4082C135.141 21.2182 139.101 18.6982 143.031 18.7282C146.061 18.7582 148.911 19.9282 150.081 22.9882L146.871 24.5482C146.121 22.4482 144.861 21.6982 143.031 21.6682C140.991 21.6382 139.041 22.7482 139.041 26.4082Z" fill="white"/>
<path d="M160.55 18.6682C158.54 18.6682 156.71 19.7182 155.54 21.9682V12.9082H151.64V33.9082H155.54V28.5982C155.54 21.7282 158.39 21.1582 159.44 21.1582C161.12 21.1582 161.36 22.8982 161.36 25.4482V33.9082H165.26V25.4482C165.26 22.2682 164.75 18.6682 160.55 18.6682Z" fill="white"/>
<path d="M181.726 26.4082C181.726 21.2182 178.036 18.7582 174.136 18.7282C170.206 18.6982 166.576 21.2182 166.576 26.4082C166.576 31.5982 170.206 34.1182 174.136 34.0882C177.706 34.0582 180.166 32.4082 181.306 29.6782L178.276 28.4182C177.346 30.2782 175.876 30.9382 174.136 30.9682C172.636 30.9982 170.926 30.2782 170.566 27.6082H181.636C181.696 27.2182 181.726 26.8282 181.726 26.4082ZM174.136 21.8182C175.636 21.8482 177.166 22.6582 177.646 24.8182H170.626C171.136 22.6282 172.666 21.7882 174.136 21.8182Z" fill="white"/>
</g>
<defs>
<clipPath id="clip0_17127_14158">
<rect width="44" height="44" fill="white" transform="translate(0.5 2)"/>
</clipPath>
</defs>
</svg>
