<svg width="178" height="48" viewBox="0 0 178 48" fill="none" xmlns="http://www.w3.org/2000/svg">
<g opacity="0.3">
<circle cx="20" cy="24" r="17" stroke="white" stroke-width="6"/>
<path d="M66.1836 20.4135C66.1836 21.4588 65.9316 22.4388 65.4276 23.3535C64.9423 24.2681 64.1676 25.0055 63.1036 25.5655C62.0583 26.1255 60.733 26.4055 59.1276 26.4055H55.8516V33.9095H51.9316V14.3655H59.1276C60.6396 14.3655 61.9276 14.6268 62.9916 15.1495C64.0556 15.6721 64.849 16.3908 65.3716 17.3055C65.913 18.2201 66.1836 19.2561 66.1836 20.4135ZM58.9596 23.2415C60.0423 23.2415 60.845 22.9988 61.3676 22.5135C61.8903 22.0095 62.1516 21.3095 62.1516 20.4135C62.1516 18.5095 61.0876 17.5575 58.9596 17.5575H55.8516V23.2415H58.9596Z" fill="white"/>
<path d="M74.7348 34.1615C73.2415 34.1615 71.8975 33.8348 70.7028 33.1815C69.5081 32.5095 68.5655 31.5668 67.8748 30.3535C67.2028 29.1401 66.8668 27.7401 66.8668 26.1535C66.8668 24.5668 67.2121 23.1668 67.9028 21.9535C68.6121 20.7401 69.5735 19.8068 70.7868 19.1535C72.0001 18.4815 73.3535 18.1455 74.8468 18.1455C76.3401 18.1455 77.6935 18.4815 78.9068 19.1535C80.1201 19.8068 81.0721 20.7401 81.7628 21.9535C82.4721 23.1668 82.8268 24.5668 82.8268 26.1535C82.8268 27.7401 82.4628 29.1401 81.7348 30.3535C81.0255 31.5668 80.0548 32.5095 78.8228 33.1815C77.6095 33.8348 76.2468 34.1615 74.7348 34.1615ZM74.7348 30.7455C75.4441 30.7455 76.1068 30.5775 76.7228 30.2415C77.3575 29.8868 77.8615 29.3641 78.2348 28.6735C78.6081 27.9828 78.7948 27.1428 78.7948 26.1535C78.7948 24.6788 78.4028 23.5495 77.6188 22.7655C76.8535 21.9628 75.9108 21.5615 74.7908 21.5615C73.6708 21.5615 72.7281 21.9628 71.9628 22.7655C71.2161 23.5495 70.8428 24.6788 70.8428 26.1535C70.8428 27.6281 71.2068 28.7668 71.9348 29.5695C72.6815 30.3535 73.6148 30.7455 74.7348 30.7455Z" fill="white"/>
<path d="M88.5023 13.1895V33.9095H84.5823V13.1895H88.5023Z" fill="white"/>
<path d="M106.095 18.3975L96.4912 41.2455H92.3192L95.6792 33.5175L89.4632 18.3975H93.8592L97.8632 29.2335L101.923 18.3975H106.095Z" fill="white"/>
<path d="M126.352 18.1735C128.256 18.1735 129.787 18.7615 130.944 19.9375C132.12 21.0948 132.708 22.7188 132.708 24.8095V33.9095H128.788V25.3415C128.788 24.1281 128.48 23.2041 127.864 22.5695C127.248 21.9161 126.408 21.5895 125.344 21.5895C124.28 21.5895 123.431 21.9161 122.796 22.5695C122.18 23.2041 121.872 24.1281 121.872 25.3415V33.9095H117.952V25.3415C117.952 24.1281 117.644 23.2041 117.028 22.5695C116.412 21.9161 115.572 21.5895 114.508 21.5895C113.426 21.5895 112.567 21.9161 111.932 22.5695C111.316 23.2041 111.008 24.1281 111.008 25.3415V33.9095H107.088V18.3975H111.008V20.2735C111.512 19.6201 112.156 19.1068 112.94 18.7335C113.743 18.3601 114.62 18.1735 115.572 18.1735C116.786 18.1735 117.868 18.4348 118.82 18.9575C119.772 19.4615 120.51 20.1895 121.032 21.1415C121.536 20.2455 122.264 19.5268 123.216 18.9855C124.187 18.4441 125.232 18.1735 126.352 18.1735Z" fill="white"/>
<path d="M134.3 26.0975C134.3 24.5295 134.608 23.1388 135.224 21.9255C135.859 20.7121 136.708 19.7788 137.772 19.1255C138.855 18.4721 140.059 18.1455 141.384 18.1455C142.542 18.1455 143.55 18.3788 144.408 18.8455C145.286 19.3121 145.986 19.9001 146.508 20.6095V18.3975H150.456V33.9095H146.508V31.6415C146.004 32.3695 145.304 32.9761 144.408 33.4615C143.531 33.9281 142.514 34.1615 141.356 34.1615C140.05 34.1615 138.855 33.8255 137.772 33.1535C136.708 32.4815 135.859 31.5388 135.224 30.3255C134.608 29.0935 134.3 27.6841 134.3 26.0975ZM146.508 26.1535C146.508 25.2015 146.322 24.3895 145.948 23.7175C145.575 23.0268 145.071 22.5041 144.436 22.1495C143.802 21.7761 143.12 21.5895 142.392 21.5895C141.664 21.5895 140.992 21.7668 140.376 22.1215C139.76 22.4761 139.256 22.9988 138.864 23.6895C138.491 24.3615 138.304 25.1641 138.304 26.0975C138.304 27.0308 138.491 27.8521 138.864 28.5615C139.256 29.2521 139.76 29.7841 140.376 30.1575C141.011 30.5308 141.683 30.7175 142.392 30.7175C143.12 30.7175 143.802 30.5401 144.436 30.1855C145.071 29.8121 145.575 29.2895 145.948 28.6175C146.322 27.9268 146.508 27.1055 146.508 26.1535Z" fill="white"/>
<path d="M157.729 21.6175V29.1215C157.729 29.6441 157.85 30.0268 158.093 30.2695C158.354 30.4935 158.783 30.6055 159.381 30.6055H161.201V33.9095H158.737C155.433 33.9095 153.781 32.3041 153.781 29.0935V21.6175H151.933V18.3975H153.781V14.5615H157.729V18.3975H161.201V21.6175H157.729Z" fill="white"/>
<path d="M171.636 18.1735C172.812 18.1735 173.858 18.4348 174.772 18.9575C175.687 19.4615 176.396 20.2175 176.9 21.2255C177.423 22.2148 177.684 23.4095 177.684 24.8095V33.9095H173.764V25.3415C173.764 24.1095 173.456 23.1668 172.84 22.5135C172.224 21.8415 171.384 21.5055 170.32 21.5055C169.238 21.5055 168.379 21.8415 167.744 22.5135C167.128 23.1668 166.82 24.1095 166.82 25.3415V33.9095H162.9V13.1895H166.82V20.3295C167.324 19.6575 167.996 19.1348 168.836 18.7615C169.676 18.3695 170.61 18.1735 171.636 18.1735Z" fill="white"/>
</g>
</svg>
